<?xml version="1.0" encoding="utf-8"?>
<!-- Generator: Adobe Illustrator 16.0.0, SVG Export Plug-In . SVG Version: 6.00 Build 0)  -->
<!DOCTYPE svg PUBLIC "-//W3C//DTD SVG 1.1//EN" "http://www.w3.org/Graphics/SVG/1.1/DTD/svg11.dtd">
<svg version="1.1" id="Layer_1" xmlns="http://www.w3.org/2000/svg" xmlns:xlink="http://www.w3.org/1999/xlink" x="0px" y="0px"
	 width="32px" height="32px" viewBox="0 0 32 32" enable-background="new 0 0 32 32" xml:space="preserve">
<path d="M16,0C7.163,0,0,6.268,0,14c0,5.154,3.192,9.646,7.932,12.076V32l4.388-4.387C13.502,27.857,14.73,28,16,28
	c8.836,0,16-6.268,16-14C32,6.268,24.836,0,16,0z M16.014,22.905c-1.404,0-2.341-1.014-2.341-2.365c0-1.379,0.963-2.367,2.341-2.367
	s2.288,0.988,2.313,2.367C18.327,21.892,17.417,22.905,16.014,22.905z M17.495,16.874h-2.964L13.934,5.095h4.134L17.495,16.874z"/>
</svg>
