<!-- Generated by IcoMoon.io -->
<svg version="1.1" xmlns="http://www.w3.org/2000/svg" width="32" height="32" viewBox="0 0 32 32">
<title>alert-question</title>
<path d="M16 0c-8.837 0-16 6.268-16 14 0 5.154 3.192 9.646 7.932 12.076v5.924l4.388-4.387c1.182 0.244 2.41 0.387 3.68 0.387 8.836 0 16-6.268 16-14s-7.164-14-16-14zM15.312 23.048c-1.378 0-2.314-1.014-2.314-2.365 0-1.379 0.962-2.367 2.314-2.367 1.404 0 2.314 0.988 2.34 2.367-0.001 1.351-0.936 2.365-2.34 2.365zM17.132 16.626v0.468h-3.459l-0.025-0.676c-0.078-1.326 0.363-2.678 1.534-4.082 0.832-0.988 1.509-1.82 1.509-2.704 0-0.91-0.6-1.508-1.899-1.56-0.857 0-1.898 0.312-2.574 0.78l-0.884-2.834c0.937-0.546 2.496-1.066 4.342-1.066 3.434 0 4.992 1.898 4.992 4.056 0 1.976-1.221 3.276-2.209 4.368-0.964 1.066-1.353 2.080-1.327 3.25z"></path>
</svg>
