<!-- Generated by IcoMoon.io -->
<svg version="1.1" xmlns="http://www.w3.org/2000/svg" width="32" height="32" viewBox="0 0 32 32">
<title>alert-exclaim</title>
<path d="M16 0c-8.837 0-16 6.268-16 14 0 5.154 3.192 9.646 7.932 12.076v5.924l4.388-4.387c1.182 0.244 2.41 0.387 3.68 0.387 8.836 0 16-6.268 16-14s-7.164-14-16-14zM16.014 22.905c-1.404 0-2.341-1.014-2.341-2.365 0-1.379 0.963-2.367 2.341-2.367s2.288 0.988 2.313 2.367c0 1.352-0.91 2.365-2.313 2.365zM17.495 16.874h-2.964l-0.597-11.779h4.134l-0.573 11.779z"></path>
</svg>
