<?xml version="1.0" encoding="utf-8"?>
<!-- Generator: Adobe Illustrator 16.0.0, SVG Export Plug-In . SVG Version: 6.00 Build 0)  -->
<!DOCTYPE svg PUBLIC "-//W3C//DTD SVG 1.1//EN" "http://www.w3.org/Graphics/SVG/1.1/DTD/svg11.dtd">
<svg version="1.1" id="Layer_1" xmlns="http://www.w3.org/2000/svg" xmlns:xlink="http://www.w3.org/1999/xlink" x="0px" y="0px"
	 width="32px" height="32px" viewBox="0 0 32 32" enable-background="new 0 0 32 32" xml:space="preserve">
<path d="M16,0C7.163,0,0,6.268,0,14c0,5.154,3.192,9.646,7.932,12.076V32l4.388-4.387C13.502,27.857,14.73,28,16,28
	c8.836,0,16-6.268,16-14C32,6.268,24.836,0,16,0z M15.312,23.048c-1.378,0-2.314-1.014-2.314-2.365c0-1.379,0.962-2.367,2.314-2.367
	c1.404,0,2.314,0.988,2.34,2.367C17.651,22.034,16.716,23.048,15.312,23.048z M17.132,16.626v0.468h-3.459l-0.025-0.676
	c-0.078-1.326,0.363-2.678,1.534-4.082c0.832-0.988,1.509-1.82,1.509-2.704c0-0.91-0.6-1.508-1.899-1.56
	c-0.857,0-1.898,0.312-2.574,0.78l-0.884-2.834c0.937-0.546,2.496-1.066,4.342-1.066c3.434,0,4.992,1.898,4.992,4.056
	c0,1.976-1.221,3.276-2.209,4.368C17.495,14.442,17.106,15.456,17.132,16.626z"/>
</svg>
