<!-- Generated by IcoMoon.io -->
<svg version="1.1" xmlns="http://www.w3.org/2000/svg" width="32" height="32" viewBox="0 0 32 32">
<title>alert-info</title>
<path d="M16 0c-8.837 0-16 6.268-16 14 0 5.154 3.192 9.646 7.932 12.076v5.924l4.388-4.387c1.182 0.244 2.41 0.387 3.68 0.387 8.836 0 16-6.268 16-14s-7.164-14-16-14zM15.988 4.874c1.273 0 2.080 0.858 2.105 2.002 0 1.092-0.832 1.976-2.131 1.976-1.248 0-2.080-0.884-2.054-1.976-0.027-1.145 0.805-2.002 2.080-2.002zM17.963 23.127h-3.952v-12.715h3.952v12.715z"></path>
</svg>
