<?xml version="1.0" encoding="utf-8"?>
<!-- Generator: Adobe Illustrator 16.0.0, SVG Export Plug-In . SVG Version: 6.00 Build 0)  -->
<!DOCTYPE svg PUBLIC "-//W3C//DTD SVG 1.1//EN" "http://www.w3.org/Graphics/SVG/1.1/DTD/svg11.dtd">
<svg version="1.1" id="Layer_1" xmlns="http://www.w3.org/2000/svg" xmlns:xlink="http://www.w3.org/1999/xlink" x="0px" y="0px"
	 width="32px" height="32px" viewBox="0 0 32 32" enable-background="new 0 0 32 32" xml:space="preserve">
<path d="M16,0C7.163,0,0,6.268,0,14c0,5.154,3.192,9.646,7.932,12.076V32l4.388-4.387C13.502,27.857,14.73,28,16,28
	c8.836,0,16-6.268,16-14C32,6.268,24.836,0,16,0z M15.988,4.874c1.273,0,2.08,0.858,2.105,2.002c0,1.092-0.832,1.976-2.131,1.976
	c-1.248,0-2.08-0.884-2.054-1.976C13.881,5.731,14.713,4.874,15.988,4.874z M17.963,23.127h-3.952V10.412h3.952V23.127z"/>
</svg>
