<!-- Generated by IcoMoon.io -->
<svg version="1.1" xmlns="http://www.w3.org/2000/svg" width="32" height="32" viewBox="0 0 32 32">
<title>alert-notif</title>
<path d="M16 0c-8.836 0-15.999 7.164-15.999 16s7.163 16 15.999 16 16-7.164 16-16-7.164-16-16-16zM16 24.848c-1.148 0-2.080-0.931-2.080-2.080h4.159c0 1.149-0.931 2.080-2.080 2.080zM23.028 20.683h-0.001c0 0.769-0.623 0.82-1.392 0.82h-11.272c-0.769 0-1.392-0.051-1.392-0.82v-0.132c0-0.553 0.325-1.027 0.791-1.251l0.442-3.814c0-2.792 1.974-5.122 4.603-5.672v-1.481c0-0.658 0.534-1.192 1.192-1.192s1.192 0.534 1.192 1.192v1.481c2.628 0.55 4.603 2.88 4.603 5.672l0.442 3.814c0.467 0.225 0.791 0.698 0.791 1.251v0.132z"></path>
</svg>
