<!-- Generated by IcoMoon.io -->
<svg version="1.1" xmlns="http://www.w3.org/2000/svg" width="32" height="32" viewBox="0 0 32 32">
<path d="M16.292 0.496c-1.030 0-1.865 0.835-1.865 1.864v5.597c0 1.030 0.835 1.865 1.865 1.865 1.028 0 1.864-0.835 1.865-1.865v-5.597c0-1.029-0.837-1.864-1.865-1.864z"></path>
<path d="M16.292 23.576c-0.644 0-1.166 0.521-1.166 1.166v5.597c0 0.644 0.522 1.165 1.166 1.165s1.165-0.521 1.166-1.165v-5.597c0-0.644-0.522-1.166-1.166-1.166z"></path>
<path d="M10.811 3.36c-0.483-0.836-1.553-1.122-2.389-0.64s-1.123 1.552-0.639 2.388l2.798 4.847c0.324 0.561 0.912 0.875 1.516 0.875 0.297 0 0.597-0.076 0.872-0.234 0.836-0.483 1.123-1.553 0.64-2.389l-2.798-4.847z"></path>
<path d="M23.287 29.516v0h-0.001z"></path>
<path d="M21.395 23.094c-0.289-0.502-0.93-0.674-1.432-0.385-0.502 0.291-0.674 0.932-0.385 1.434l2.799 4.847c0.193 0.337 0.547 0.524 0.91 0.524v0.002c0.177 0 0.357-0.047 0.521-0.142 0.502-0.291 0.674-0.933 0.385-1.435l-2.798-4.845z"></path>
<path d="M3.36 10.769l4.847 2.797c0.257 0.15 0.537 0.22 0.814 0.22 0.563 0 1.112-0.292 1.415-0.816 0.451-0.781 0.184-1.779-0.597-2.229l-4.846-2.799c-0.78-0.45-1.778-0.182-2.229 0.598s-0.184 1.777 0.596 2.229z"></path>
<path d="M28.872 22.537l-4.847-2.799c-0.444-0.258-1.015-0.104-1.272 0.342-0.258 0.445-0.104 1.016 0.34 1.273l4.847 2.797c0.146 0.086 0.309 0.125 0.467 0.125 0.322 0 0.635-0.166 0.808-0.465 0.258-0.445 0.101-1.015-0.343-1.273z"></path>
<path d="M9.414 16.349c0-0.837-0.679-1.515-1.516-1.515h-5.596c-0.838 0-1.516 0.678-1.516 1.515 0 0.836 0.679 1.516 1.516 1.516h5.596c0.838 0 1.516-0.679 1.516-1.516z"></path>
<path d="M30.281 15.416h-5.598c-0.515 0-0.933 0.418-0.933 0.933 0 0.516 0.418 0.934 0.933 0.934h5.598c0.514 0 0.932-0.418 0.932-0.934 0-0.515-0.418-0.933-0.932-0.933z"></path>
<path d="M10.233 19.848c-0.386-0.67-1.242-0.9-1.911-0.514l-4.846 2.799c-0.669 0.387-0.898 1.242-0.512 1.91 0.259 0.449 0.73 0.701 1.213 0.701 0.238 0 0.479-0.061 0.698-0.188l4.846-2.799c0.669-0.386 0.898-1.241 0.512-1.909z"></path>
<path d="M23.561 13.086c0.158 0 0.318-0.040 0.465-0.125l4.848-2.798c0.445-0.257 0.598-0.828 0.34-1.274s-0.828-0.598-1.273-0.341l-4.846 2.798c-0.447 0.257-0.6 0.828-0.342 1.274 0.173 0.299 0.488 0.466 0.808 0.466z"></path>
<path d="M12.736 22.507c-0.614-0.353-1.398-0.144-1.752 0.47l-2.798 4.846c-0.354 0.613-0.144 1.398 0.469 1.752 0.202 0.117 0.422 0.172 0.64 0.172 0.445 0 0.875-0.229 1.112-0.641l2.798-4.847c0.354-0.614 0.145-1.398-0.469-1.752z"></path>
</svg>
