<?xml version="1.0" encoding="utf-8"?>
<!-- Generator: Adobe Illustrator 16.0.0, SVG Export Plug-In . SVG Version: 6.00 Build 0)  -->
<!DOCTYPE svg PUBLIC "-//W3C//DTD SVG 1.1//EN" "http://www.w3.org/Graphics/SVG/1.1/DTD/svg11.dtd">
<svg version="1.1" id="Layer_1" xmlns="http://www.w3.org/2000/svg" xmlns:xlink="http://www.w3.org/1999/xlink" x="0px" y="0px"
	 width="32px" height="32px" viewBox="0 0 32 32" enable-background="new 0 0 32 32" xml:space="preserve">
<g>
	<path d="M16.292,0.496c-1.03,0-1.865,0.835-1.865,1.864v5.597c0,1.03,0.835,1.865,1.865,1.865c1.028,0,1.864-0.835,1.865-1.865
		V2.36C18.157,1.331,17.32,0.496,16.292,0.496z"/>
	<path enable-background="new    " d="M16.292,23.576c-0.644,0-1.166,0.521-1.166,1.166v5.597c0,0.644,0.522,1.165,1.166,1.165
		c0.644,0,1.165-0.521,1.166-1.165v-5.597C17.458,24.098,16.936,23.576,16.292,23.576z"/>
	<path d="M10.811,3.36c-0.483-0.836-1.553-1.122-2.389-0.64C7.586,3.203,7.299,4.272,7.783,5.108l2.798,4.847
		c0.324,0.561,0.912,0.875,1.516,0.875c0.297,0,0.597-0.076,0.872-0.234c0.836-0.483,1.123-1.553,0.64-2.389L10.811,3.36z"/>
	<polygon enable-background="new    " points="23.287,29.516 23.287,29.516 23.286,29.516 	"/>
	<path enable-background="new    " d="M21.395,23.094c-0.289-0.502-0.93-0.674-1.432-0.385c-0.502,0.291-0.674,0.932-0.385,1.434
		l2.799,4.847c0.193,0.337,0.547,0.524,0.91,0.524v0.002c0.177,0,0.357-0.047,0.521-0.142c0.502-0.291,0.674-0.933,0.385-1.435
		L21.395,23.094z"/>
	<path d="M3.36,10.769l4.847,2.797c0.257,0.15,0.537,0.22,0.814,0.22c0.563,0,1.112-0.292,1.415-0.816
		c0.451-0.781,0.184-1.779-0.597-2.229L4.993,7.942C4.213,7.492,3.215,7.76,2.764,8.54C2.312,9.32,2.58,10.317,3.36,10.769z"/>
	<path enable-background="new    " d="M28.872,22.537l-4.847-2.799c-0.444-0.258-1.015-0.104-1.272,0.342
		c-0.258,0.445-0.104,1.016,0.34,1.273l4.847,2.797c0.146,0.086,0.309,0.125,0.467,0.125c0.322,0,0.635-0.166,0.808-0.465
		C29.473,23.365,29.316,22.795,28.872,22.537z"/>
	<path enable-background="new    " d="M9.414,16.349c0-0.837-0.679-1.515-1.516-1.515H2.302c-0.838,0-1.516,0.678-1.516,1.515
		c0,0.836,0.679,1.516,1.516,1.516h5.596C8.736,17.865,9.414,17.186,9.414,16.349z"/>
	<path enable-background="new    " d="M30.281,15.416h-5.598c-0.515,0-0.933,0.418-0.933,0.933c0,0.516,0.418,0.934,0.933,0.934
		h5.598c0.514,0,0.932-0.418,0.932-0.934C31.213,15.834,30.795,15.416,30.281,15.416z"/>
	<path enable-background="new    " d="M10.233,19.848c-0.386-0.67-1.242-0.9-1.911-0.514l-4.846,2.799
		c-0.669,0.387-0.898,1.242-0.512,1.91c0.259,0.449,0.73,0.701,1.213,0.701c0.238,0,0.479-0.061,0.698-0.188l4.846-2.799
		C10.39,21.371,10.619,20.516,10.233,19.848z"/>
	<path enable-background="new    " d="M23.561,13.086c0.158,0,0.318-0.04,0.465-0.125l4.848-2.798
		c0.445-0.257,0.598-0.828,0.34-1.274c-0.257-0.446-0.828-0.598-1.273-0.341l-4.846,2.798c-0.447,0.257-0.6,0.828-0.342,1.274
		C22.926,12.919,23.241,13.086,23.561,13.086z"/>
	<path enable-background="new    " d="M12.736,22.507c-0.614-0.353-1.398-0.144-1.752,0.47l-2.798,4.846
		c-0.354,0.613-0.144,1.398,0.469,1.752c0.202,0.117,0.422,0.172,0.64,0.172c0.445,0,0.875-0.229,1.112-0.641l2.798-4.847
		C13.559,23.645,13.35,22.861,12.736,22.507z"/>
</g>
</svg>
