<!-- Generated by IcoMoon.io -->
<svg version="1.1" xmlns="http://www.w3.org/2000/svg" width="32" height="32" viewBox="0 0 32 32">
<title>calendar</title>
<path d="M30.4 2.133h-3.733v-1.6c0-0.295-0.238-0.533-0.533-0.533h-3.734c-0.295 0-0.534 0.238-0.534 0.533v1.6h-11.733v-1.6c0-0.295-0.238-0.533-0.533-0.533h-3.733c-0.295 0-0.533 0.238-0.533 0.533v1.6h-3.734c-0.295 0-0.533 0.238-0.533 0.533v28.801c0 0.295 0.238 0.533 0.533 0.533h28.8c0.295 0 0.533-0.238 0.533-0.533v-28.801c0.001-0.294-0.238-0.533-0.533-0.533zM22.934 1.067h2.666v3.2h-2.666v-3.2zM6.4 1.067h2.667v3.2h-2.667v-3.2zM2.133 3.2h3.2v1.6c0 0.295 0.238 0.534 0.533 0.534h3.733c0.295 0 0.533-0.239 0.533-0.534v-1.6h11.733v1.6c0 0.295 0.239 0.534 0.534 0.534h3.733c0.295 0 0.533-0.239 0.533-0.534v-1.6h3.199v4.8h-27.733v-4.8zM2.133 30.934v-21.867h27.733v21.867h-27.733z"></path>
<path d="M20.267 12.267h-14.399v15.466h20.266v-15.466h-5.867zM16.533 13.333h3.733v3.733h-3.733v-3.733zM20.267 21.866h-3.733v-3.732h3.733v3.732zM11.733 18.134h3.733v3.732h-3.733v-3.732zM11.733 13.333h3.733v3.733h-3.733v-3.733zM6.933 13.333h3.733v3.733h-3.733v-3.733zM6.933 18.134h3.733v3.732h-3.733v-3.732zM10.667 26.667h-3.733v-3.733h3.733v3.733zM15.467 26.667h-3.733v-3.733h3.733v3.733zM20.267 26.667h-3.733v-3.733h3.733v3.733zM25.066 26.667h-3.733v-3.733h3.733v3.733zM25.066 21.866h-3.733v-3.732h3.733v3.732zM25.066 13.333v3.733h-3.733v-3.733h3.733z"></path>
</svg>
