<?xml version="1.0" encoding="utf-8"?>
<!-- Generator: Adobe Illustrator 16.0.0, SVG Export Plug-In . SVG Version: 6.00 Build 0)  -->
<!DOCTYPE svg PUBLIC "-//W3C//DTD SVG 1.1//EN" "http://www.w3.org/Graphics/SVG/1.1/DTD/svg11.dtd">
<svg version="1.1" id="Capa_1" xmlns="http://www.w3.org/2000/svg" xmlns:xlink="http://www.w3.org/1999/xlink" x="0px" y="0px"
	 width="32px" height="32px" viewBox="294.5 536 32 32" enable-background="new 294.5 536 32 32" xml:space="preserve">
<g>
	<path d="M324.9,538.133h-3.733v-1.6c0-0.295-0.238-0.533-0.533-0.533H316.9c-0.295,0-0.534,0.238-0.534,0.533v1.6h-11.733v-1.6
		c0-0.295-0.238-0.533-0.533-0.533h-3.733c-0.295,0-0.533,0.238-0.533,0.533v1.6H296.1c-0.295,0-0.533,0.238-0.533,0.533v5.867
		v22.934c0,0.295,0.238,0.533,0.533,0.533h28.8c0.295,0,0.533-0.238,0.533-0.533v-22.934v-5.867
		C325.434,538.372,325.195,538.133,324.9,538.133z M317.434,537.067h2.666v1.6v1.6h-2.666v-1.6V537.067z M300.9,537.067h2.667v1.6
		v1.6H300.9v-1.6V537.067z M296.633,539.2h3.2v1.6c0,0.295,0.238,0.534,0.533,0.534h3.733c0.295,0,0.533-0.239,0.533-0.534v-1.6
		h11.733v1.6c0,0.295,0.239,0.534,0.534,0.534h3.733c0.295,0,0.533-0.239,0.533-0.534v-1.6h3.199v4.8h-27.733V539.2z
		 M296.633,566.934v-21.867h27.733v21.867H296.633z"/>
	<path d="M314.767,548.267h-3.733h-1.066h-3.733h-1.067h-4.8v4.8v1.067v3.732v1.067v4.8h4.8h1.067h3.733h1.066h3.733h1.066h4.801
		v-4.8v-1.067v-3.732v-1.067v-4.8h-4.801H314.767z M311.033,549.333h3.733v3.733h-3.733V549.333z M314.767,557.866h-3.733v-3.732
		h3.733V557.866z M306.233,554.134h3.733v3.732h-3.733V554.134z M306.233,549.333h3.733v3.733h-3.733V549.333z M301.433,549.333
		h3.733v3.733h-3.733V549.333z M301.433,554.134h3.733v3.732h-3.733V554.134z M305.167,562.667h-3.733v-3.733h3.733V562.667z
		 M309.967,562.667h-3.733v-3.733h3.733V562.667z M314.767,562.667h-3.733v-3.733h3.733V562.667z M319.566,562.667h-3.733v-3.733
		h3.733V562.667z M319.566,557.866h-3.733v-3.732h3.733V557.866z M319.566,549.333v3.733h-3.733v-3.733H319.566z"/>
</g>
</svg>
