<!-- Generated by IcoMoon.io -->
<svg version="1.1" xmlns="http://www.w3.org/2000/svg" width="32" height="32" viewBox="0 0 32 32">
<path d="M30.476 1.524c-2.033-2.032-5.34-2.032-7.372 0l-20.887 20.887c-0.010 0.010-0.016 0.022-0.024 0.032-0.012 0.014-0.023 0.029-0.034 0.044-0.031 0.043-0.054 0.089-0.072 0.138-0.005 0.015-0.013 0.028-0.017 0.043-0.002 0.006-0.005 0.012-0.007 0.017l-2.047 8.601c-0.009 0.039-0.012 0.078-0.013 0.117 0 0.008-0.002 0.014-0.002 0.022 0.001 0.066 0.015 0.13 0.038 0.192 0.005 0.014 0.011 0.027 0.017 0.041 0.028 0.062 0.064 0.122 0.114 0.171 0.055 0.055 0.12 0.097 0.19 0.126s0.145 0.043 0.22 0.043c0.045 0 0.090-0.005 0.134-0.016l8.601-2.047c0.016-0.003 0.030-0.012 0.045-0.017 0.020-0.006 0.038-0.014 0.057-0.023 0.042-0.019 0.081-0.043 0.116-0.071 0.014-0.011 0.028-0.019 0.042-0.031 0.005-0.005 0.010-0.007 0.015-0.012l20.887-20.887c2.033-2.033 2.033-5.34 0.001-7.372zM29.657 2.343c1.441 1.442 1.564 3.705 0.376 5.292l-5.669-5.668c1.588-1.187 3.851-1.065 5.292 0.376zM26.79 10.944l-5.734-5.734 0.819-0.819 5.734 5.734-0.819 0.819zM2.873 29.126c-0.226-0.226-0.593-0.226-0.819 0l-0.438 0.438 1.479-6.213 2.561-0.284-0.33 2.967c-0.002 0.022 0.006 0.042 0.006 0.064s-0.008 0.042-0.006 0.064c0.002 0.019 0.012 0.035 0.016 0.053 0.007 0.034 0.017 0.064 0.029 0.096 0.015 0.038 0.033 0.072 0.055 0.105 0.018 0.027 0.036 0.050 0.058 0.074 0.028 0.030 0.058 0.054 0.091 0.078 0.026 0.018 0.051 0.035 0.080 0.049 0.038 0.018 0.078 0.028 0.12 0.038 0.022 0.005 0.040 0.017 0.063 0.020 0.021 0.002 0.042 0.003 0.063 0.003 0 0 0.001 0 0.001 0s0.001 0 0.001 0h0.001c0 0 0.001 0 0.001 0 0.021 0 0.042-0.001 0.063-0.003l2.967-0.33-0.284 2.561-6.214 1.479 0.438-0.438c0.226-0.226 0.226-0.593 0-0.819zM10.142 25.953l12.961-12.962c0.226-0.226 0.226-0.592 0-0.819s-0.593-0.226-0.819 0l-12.961 12.962-2.764 0.307 0.307-2.764 12.962-12.961c0.226-0.226 0.226-0.592 0-0.819s-0.593-0.226-0.819 0l-12.962 12.961-1.844 0.205 16.034-16.034 5.734 5.734-16.034 16.034 0.205-1.844zM28.428 9.306l-5.734-5.734 0.82-0.82 5.734 5.734-0.82 0.82z"></path>
</svg>
