<!-- Generated by IcoMoon.io -->
<svg version="1.1" xmlns="http://www.w3.org/2000/svg" width="32" height="32" viewBox="0 0 32 32">
<title>icon-placeholder</title>
<path d="M30.032 25.554l-9.231-3.175c0.268-0.353 0.54-0.716 0.813-1.089 3.363-4.602 5.069-8.17 5.069-10.606 0-5.891-4.793-10.684-10.684-10.684s-10.683 4.793-10.683 10.684c0 2.436 1.705 6.004 5.069 10.606 0.275 0.376 0.549 0.742 0.819 1.098l-9.236 3.166c-0.359 0.123-0.6 0.46-0.6 0.839s0.241 0.717 0.599 0.84l13.72 4.719c0.094 0.032 0.191 0.048 0.289 0.048s0.195-0.016 0.288-0.048l13.767-4.719c0.359-0.123 0.6-0.46 0.6-0.839s-0.241-0.717-0.599-0.84zM24.908 10.684c0 3.845-5.92 11.376-8.908 14.776-2.988-3.399-8.908-10.928-8.908-14.776 0-4.912 3.996-8.908 8.908-8.908s8.908 3.996 8.908 8.908zM15.977 30.173l-10.986-3.779 7.37-2.526c1.63 2.038 2.911 3.442 2.984 3.522 0.168 0.184 0.406 0.288 0.655 0.288s0.487-0.105 0.655-0.288c0.073-0.080 1.358-1.487 2.992-3.531l7.363 2.532-11.033 3.782z"></path>
<path d="M16 14.727c2.516 0 4.563-2.047 4.563-4.563s-2.047-4.564-4.564-4.564-4.564 2.047-4.564 4.564 2.047 4.564 4.564 4.564zM18.788 10.164c0 1.537-1.25 2.788-2.788 2.788s-2.788-1.251-2.788-2.788c0-1.537 1.251-2.788 2.788-2.788s2.788 1.251 2.788 2.788z"></path>
</svg>
