<!-- Generated by IcoMoon.io -->
<svg version="1.1" xmlns="http://www.w3.org/2000/svg" width="32" height="32" viewBox="0 0 32 32">
<title>icon-lock</title>
<path d="M27 9.999h-2v-2c0-4.418-3.582-8-8-8h-2c-4.418 0-8 3.582-8 8v2h-2c-2.209 0-4 1.791-4 4.001v14c0 2.21 1.791 4 4 4h22c2.209 0 4-1.79 4-4v-14c0-2.21-1.791-4-4-4zM9 8c0-3.309 2.691-6 6-6h2c3.308 0 6 2.691 6 6v1.999h-2v-2c0-2.206-1.795-4-4-4h-2c-2.205 0-4 1.794-4 4v2h-2v-2zM19 8v1.999h-6v-2c0-1.104 0.895-2 2-2h2c1.105 0 2 0.896 2 2zM29 28c0 1.102-0.896 2-2 2h-22c-1.103 0-2-0.898-2-2v-14c0-1.102 0.897-2 2-2h22c1.104 0 2 0.898 2 2v14zM16 16c-1.656 0-3 1.343-3 3 0 1.305 0.838 2.403 2 2.817v3.183c0 0.553 0.447 1 1 1s1-0.447 1-1v-3.183c1.162-0.413 2-1.512 2-2.817 0-1.657-1.344-3-3-3z"></path>
</svg>
