<!-- Generated by IcoMoon.io -->
<svg version="1.1" xmlns="http://www.w3.org/2000/svg" width="32" height="32" viewBox="0 0 32 32">
<title>icon-key</title>
<path d="M2 29c0-0.154 0.039-0.452 0.293-0.707l13.326-13.325-0.68-1.302c-0.622-1.193-0.939-2.427-0.939-3.666 0-4.411 3.588-8 8-8s8 3.589 8 8-3.588 8-8 8c-0.535 0-1.074-0.055-1.604-0.161l-2.396-0.485v2.646h-4v4h-4v4h-4.586l-1.707 1.707c-0.256 0.255-0.553 0.293-0.707 0.293s-0.451-0.038-0.707-0.293c-0.254-0.255-0.293-0.553-0.293-0.707zM26 10c0-2.206-1.795-4-4-4s-4 1.794-4 4 1.795 4 4 4 4-1.794 4-4zM0 29c0 0.767 0.293 1.535 0.879 2.121 1.172 1.172 3.070 1.172 4.242 0l1.121-1.121h5.758v-4h4v-4h4v-2.201c0.647 0.131 1.315 0.201 2 0.201 5.523 0 10-4.477 10-10s-4.477-10-10-10-10 4.478-10 10c0 1.665 0.445 3.211 1.166 4.592l-12.287 12.287c-0.586 0.586-0.879 1.354-0.879 2.121v0zM24 10c0 1.104-0.895 2-2 2s-2-0.896-2-2 0.895-2 2-2 2 0.896 2 2v0z"></path>
</svg>
