<!-- Generated by IcoMoon.io -->
<svg version="1.1" xmlns="http://www.w3.org/2000/svg" width="32" height="32" viewBox="0 0 32 32">
<title>icon-folder-closed</title>
<path d="M30.389 6.133h-15.445v-2.656c0-0.888-0.722-1.611-1.611-1.611h-11.723c-0.889 0-1.611 0.722-1.611 1.611v25.045c0 0.888 0.722 1.611 1.611 1.611h28.779c0.888 0 1.611-0.722 1.611-1.611v-20.779c0-0.889-0.722-1.611-1.611-1.611zM30.933 28.523c0 0.3-0.244 0.544-0.544 0.544h-28.779c-0.3 0-0.544-0.244-0.544-0.544v-16.523h29.867v16.523zM1.067 10.933v-7.456c0-0.3 0.244-0.544 0.544-0.544h11.723c0.3 0 0.544 0.244 0.544 0.544v3.723h16.512c0.3 0 0.544 0.244 0.544 0.544v3.189h-29.867z"></path>
</svg>
