<?xml version="1.0" encoding="utf-8"?>
<!-- Generator: Adobe Illustrator 16.0.0, SVG Export Plug-In . SVG Version: 6.00 Build 0)  -->
<!DOCTYPE svg PUBLIC "-//W3C//DTD SVG 1.1//EN" "http://www.w3.org/Graphics/SVG/1.1/DTD/svg11.dtd">
<svg version="1.1" id="Layer_1" xmlns="http://www.w3.org/2000/svg" xmlns:xlink="http://www.w3.org/1999/xlink" x="0px" y="0px"
	 width="32px" height="32px" viewBox="0 0 32 32" enable-background="new 0 0 32 32" xml:space="preserve">
<g>
	<rect x="5.68" y="12.816" width="13.315" height="1.998"/>
	<path d="M29.236,32l1.412-1.412l-4.75-4.751c0.834-1.124,1.328-2.515,1.328-4.021c0-2.707-1.601-5.047-3.903-6.125V7.243L16.08,0
		H1.352v29.629h21.973v-1.686c0.412-0.192,0.802-0.426,1.162-0.694L29.236,32z M16.665,3.41l3.248,3.249h-3.248V3.41z M3.348,1.998
		h11.319v6.658h6.659v6.455c-0.281-0.035-0.568-0.053-0.859-0.053c-2.076,0-3.938,0.941-5.179,2.42H5.68v1.998h8.445
		c-0.271,0.729-0.418,1.519-0.418,2.342c0,0.106,0.003,0.215,0.008,0.32H5.68v1.998h8.438c0.539,1.471,1.576,2.704,2.904,3.495
		H3.348V1.998z M20.467,26.58c-2.626,0-4.763-2.137-4.763-4.764c0-2.625,2.137-4.762,4.763-4.762c2.627,0,4.764,2.137,4.764,4.762
		C25.23,24.443,23.093,26.58,20.467,26.58z"/>
</g>
</svg>
