<!-- Generated by IcoMoon.io -->
<svg version="1.1" xmlns="http://www.w3.org/2000/svg" width="32" height="32" viewBox="0 0 32 32">
<path d="M16 13.867c2.059 0 3.733-1.675 3.733-3.733s-1.675-3.733-3.733-3.733-3.733 1.675-3.733 3.733 1.675 3.733 3.733 3.733zM16 7.467c1.47 0 2.667 1.196 2.667 2.667s-1.196 2.667-2.667 2.667-2.667-1.196-2.667-2.667 1.196-2.667 2.667-2.667z"></path>
<path d="M15.906 29.204l8.182-11.817c3.069-4.091 2.625-10.816-0.95-14.39-1.932-1.932-4.5-2.996-7.232-2.996s-5.3 1.064-7.232 2.996c-3.575 3.574-4.019 10.299-0.962 14.374l8.194 11.834zM9.428 3.75c1.731-1.73 4.031-2.683 6.478-2.683s4.747 0.953 6.478 2.683c3.227 3.226 3.624 9.3 0.839 13.013l-7.317 10.567-7.329-10.583c-2.773-3.697-2.375-9.771 0.851-12.997z"></path>
<path d="M22.462 22.937c-0.293-0.036-0.558 0.174-0.592 0.467s0.175 0.558 0.467 0.592c5.609 0.66 8.596 2.439 8.596 3.47 0 1.447-5.681 3.467-14.933 3.467s-14.933-2.019-14.933-3.467c0-1.031 2.987-2.81 8.596-3.47 0.292-0.034 0.501-0.3 0.467-0.592s-0.299-0.504-0.592-0.467c-5.615 0.661-9.538 2.524-9.538 4.53 0 2.253 5.496 4.533 16 4.533s16-2.281 16-4.533c0-2.006-3.922-3.868-9.538-4.53z"></path>
</svg>
