<!-- Generated by IcoMoon.io -->
<svg version="1.1" xmlns="http://www.w3.org/2000/svg" width="32" height="32" viewBox="0 0 32 32">
<title>icon-preview</title>
<path d="M30.115 30.787l-3.912-3.912c1.824-2.305 1.436-5.651-0.869-7.474s-5.651-1.436-7.475 0.868c-1.823 2.305-1.435 5.652 0.869 7.475 1.935 1.529 4.665 1.529 6.599 0l3.913 3.913c0.247 0.235 0.635 0.227 0.87-0.012 0.24-0.241 0.24-0.616 0.005-0.857zM22.049 27.663c-2.249-0.006-4.073-1.825-4.073-4.074s1.824-4.072 4.073-4.072c2.25 0 4.073 1.823 4.073 4.072s-1.824 4.074-4.073 4.074z"></path>
<path d="M8.222 13.611h15.556v1.944h-15.556v-1.944z"></path>
<path d="M8.222 17.5h7.777v1.944h-7.777v-1.944z"></path>
<path d="M8.222 5.833h15.556v1.944h-15.556v-1.944z"></path>
<path d="M25.722 0h-19.445c-2.149 0-3.889 1.74-3.889 3.889v23.334c0 2.146 1.74 3.889 3.889 3.889h10.432v-1.945h-10.432c-1.071 0-1.944-0.87-1.944-1.944v-23.334c0-1.072 0.874-1.944 1.944-1.944h19.444c1.075 0 1.945 0.872 1.945 1.944v14.361h1.944v-14.361c0-2.149-1.742-3.889-3.889-3.889z"></path>
<path d="M8.222 9.722h15.556v1.944h-15.556v-1.944z"></path>
</svg>
