<!-- Generated by IcoMoon.io -->
<svg version="1.1" xmlns="http://www.w3.org/2000/svg" width="32" height="32" viewBox="0 0 32 32">
<path d="M28.644 31.090l-1.444-1.444v-18.667l-2.667-2.667v-8.313h-21.333v27.733h2.667v2.667h20.579l1.444 1.444c0.104 0.104 0.241 0.156 0.377 0.156s0.273-0.052 0.377-0.156c0.209-0.209 0.209-0.546 0-0.754zM25.379 10.667h-6.179v-6.179l6.179 6.179zM4.267 26.667v-25.6h19.2v6.179l-4.579-4.579h-13.021v24h-1.6zM6.933 29.333v-25.6h11.2v8h8v16.846l-4.007-4.007c0.928-1.099 1.491-2.516 1.491-4.063 0-3.478-2.83-6.308-6.308-6.308s-6.308 2.83-6.308 6.308 2.83 6.308 6.308 6.308c1.548 0 2.965-0.563 4.063-1.491l4.007 4.007h-18.446zM17.308 25.75c-2.89 0-5.242-2.351-5.242-5.242s2.351-5.242 5.242-5.242 5.242 2.351 5.242 5.242-2.351 5.242-5.242 5.242z"></path>
<path d="M14.2 19.2h3.2c0.295 0 0.533-0.238 0.533-0.533s-0.238-0.533-0.533-0.533h-3.2c-0.295 0-0.533 0.238-0.533 0.533s0.238 0.533 0.533 0.533z"></path>
<path d="M20.6 21.333h-6.4c-0.295 0-0.533 0.238-0.533 0.533s0.238 0.533 0.533 0.533h6.4c0.295 0 0.533-0.238 0.533-0.533s-0.238-0.533-0.533-0.533z"></path>
</svg>
