<!-- Generated by IcoMoon.io -->
<svg version="1.1" xmlns="http://www.w3.org/2000/svg" width="32" height="32" viewBox="0 0 32 32">
<title>icon-cloud-upload</title>
<path d="M16.028 11.379l-6.122 6.108 1.753 1.753 2.457-2.47 0.584-1.474v13.226h2.656v-13.212l0.544 1.447 2.496 2.483 1.74-1.739z"></path>
<path d="M24.659 9.971h-0.133c-1.427-3.878-5.11-6.465-9.242-6.493-5.478-0.037-9.949 4.374-9.986 9.852 0 0.212 0 0.412 0 0.624-2.955 0.029-5.328 2.449-5.298 5.404s2.449 5.328 5.404 5.298h6.639v-2.656h-6.639c-1.485 0-2.689-1.204-2.689-2.689s1.204-2.689 2.689-2.689l2.656 0.066c0 0-0.12-2.735-0.12-3.36-0.054-3.465 2.352-6.484 5.742-7.204 3.917-0.833 7.767 1.668 8.599 5.584l0.279 1.235 1.248-0.226c0.28-0.057 0.564-0.088 0.85-0.093 2.589 0 4.687 2.099 4.687 4.687s-2.099 4.687-4.687 4.687h-4.648v2.656h4.648c4.054-0.001 7.34-3.287 7.341-7.341 0.001-4.056-3.286-7.344-7.341-7.345z"></path>
</svg>
