<!-- Generated by IcoMoon.io -->
<svg version="1.1" xmlns="http://www.w3.org/2000/svg" width="32" height="32" viewBox="0 0 32 32">
<path d="M20.936 0c-5.964 0-10.816 4.852-10.816 10.816 0 1.326 0.236 2.614 0.701 3.838l-10.341 10.342c-0.148 0.148-0.231 0.348-0.231 0.557v5.659c0 0.435 0.353 0.788 0.788 0.788h4.663c0.209 0 0.409-0.083 0.557-0.23l1.572-1.569c0.148-0.148 0.231-0.349 0.231-0.558v-1.93h1.927c0.435 0 0.788-0.353 0.788-0.788v-0.773h0.773c0.435 0 0.788-0.353 0.788-0.788v-1.696h1.696c0.209 0 0.409-0.083 0.557-0.231l2.508-2.508c1.224 0.466 2.512 0.701 3.839 0.701 5.964 0 10.816-4.852 10.816-10.816s-4.852-10.815-10.815-10.815zM20.936 20.055c-1.29 0-2.538-0.261-3.709-0.775-0.303-0.133-0.644-0.060-0.867 0.158-0.002 0.002-0.005 0.004-0.007 0.007l-2.647 2.647h-2.158c-0.435 0-0.788 0.353-0.788 0.788v1.696h-0.773c-0.435 0-0.788 0.353-0.788 0.788v0.773h-1.927c-0.435 0-0.788 0.353-0.788 0.788v2.391l-1.11 1.108h-3.549v-1.114l9.634-9.634c0.277-0.277 0.277-0.726 0-1.003s-0.726-0.277-1.003 0l-8.63 8.631v-1.424l10.481-10.482c0.002-0.002 0.004-0.005 0.006-0.007 0.218-0.223 0.291-0.564 0.158-0.867-0.514-1.171-0.774-2.418-0.774-3.708 0-5.095 4.145-9.239 9.239-9.239s9.239 4.145 9.239 9.239c-0 5.094-4.145 9.239-9.239 9.239z"></path>
<path d="M24.227 4.572c-1.628 0-2.952 1.324-2.952 2.952s1.324 2.952 2.952 2.952 2.952-1.324 2.952-2.952-1.324-2.952-2.952-2.952zM24.227 8.9c-0.759 0-1.376-0.617-1.376-1.376s0.617-1.376 1.376-1.376 1.376 0.617 1.376 1.376-0.617 1.376-1.376 1.376z"></path>
</svg>
