<!-- Generated by IcoMoon.io -->
<svg version="1.1" xmlns="http://www.w3.org/2000/svg" width="32" height="32" viewBox="0 0 32 32">
<path d="M28.509 4.945v-4.655h-28.509v27.345h4.073v4.073h27.927v-26.764h-3.491zM1.164 26.473v-25.018h26.182v3.491h-23.273v21.527h-2.909zM30.836 30.545h-25.6v-24.436h25.6v24.436z"></path>
<path d="M22.973 13.391c-0.227-0.227-0.595-0.227-0.823 0l-4.114 4.114-4.114-4.114c-0.227-0.227-0.595-0.227-0.823 0s-0.227 0.595 0 0.823l4.114 4.114-4.114 4.114c-0.227 0.227-0.227 0.595 0 0.823 0.113 0.113 0.262 0.17 0.411 0.17s0.298-0.057 0.411-0.17l4.114-4.114 4.114 4.114c0.113 0.113 0.262 0.17 0.411 0.17s0.298-0.057 0.411-0.17c0.227-0.227 0.227-0.595 0-0.823l-4.114-4.114 4.114-4.114c0.227-0.227 0.227-0.596 0-0.823z"></path>
</svg>
