<!-- Generated by IcoMoon.io -->
<svg version="1.1" xmlns="http://www.w3.org/2000/svg" width="32" height="32" viewBox="0 0 32 32">
<path d="M31.185 21.247c-0.45 0-0.815 0.365-0.815 0.815v3.113c0 1.797-1.462 3.258-3.258 3.258h-22.225c-1.797 0-3.258-1.462-3.258-3.258v-3.113c0-0.45-0.365-0.815-0.815-0.815s-0.815 0.365-0.815 0.815v3.113c0 2.695 2.193 4.888 4.888 4.888h22.225c2.695 0 4.888-2.193 4.888-4.888v-3.113c0-0.45-0.365-0.815-0.815-0.815z"></path>
<path d="M26.24 24.456h-20.479c-0.45 0-0.815 0.365-0.815 0.815s0.365 0.815 0.815 0.815h20.479c0.45 0 0.815-0.365 0.815-0.815s-0.365-0.815-0.815-0.815z"></path>
<path d="M24.245 12.996c-0.3-0.335-0.815-0.365-1.15-0.065l-6.28 5.61v-15.788c0-0.45-0.365-0.815-0.815-0.815s-0.815 0.365-0.815 0.815v15.788l-6.28-5.61c-0.335-0.3-0.85-0.271-1.15 0.065s-0.271 0.851 0.065 1.15l6.823 6.095c0.387 0.346 0.872 0.518 1.357 0.518s0.97-0.173 1.357-0.518l6.823-6.096c0.336-0.3 0.365-0.815 0.065-1.15z"></path>
</svg>
