<!-- Generated by IcoMoon.io -->
<svg version="1.1" xmlns="http://www.w3.org/2000/svg" width="32" height="32" viewBox="0 0 32 32">
<title>icon-file</title>
<path d="M22.667 11.733h-13.333c-0.294 0-0.533 0.238-0.533 0.533s0.239 0.533 0.533 0.533h13.333c0.294 0 0.533-0.238 0.533-0.533s-0.239-0.533-0.533-0.533z"></path>
<path d="M9.333 8.533h5.333c0.294 0 0.533-0.238 0.533-0.533s-0.239-0.533-0.533-0.533h-5.333c-0.294 0-0.533 0.238-0.533 0.533s0.239 0.533 0.533 0.533z"></path>
<path d="M22.667 16h-13.333c-0.294 0-0.533 0.238-0.533 0.533s0.239 0.533 0.533 0.533h13.333c0.294 0 0.533-0.238 0.533-0.533s-0.239-0.533-0.533-0.533z"></path>
<path d="M22.667 20.267h-13.333c-0.294 0-0.533 0.238-0.533 0.533s0.239 0.533 0.533 0.533h13.333c0.294 0 0.533-0.238 0.533-0.533s-0.239-0.533-0.533-0.533z"></path>
<path d="M22.667 24.533h-13.333c-0.294 0-0.533 0.238-0.533 0.533s0.239 0.533 0.533 0.533h13.333c0.294 0 0.533-0.238 0.533-0.533s-0.239-0.533-0.533-0.533z"></path>
<path d="M20.754 0h-17.287v32h25.067v-24.221l-7.779-7.779zM21.067 1.821l5.646 5.646h-5.646v-5.646zM4.533 30.933v-29.867h15.467v7.467h7.467v22.4h-22.933z"></path>
</svg>
