<!-- Generated by IcoMoon.io -->
<svg version="1.1" xmlns="http://www.w3.org/2000/svg" width="32" height="32" viewBox="0 0 32 32">
<title>icon-cog</title>
<path d="M17.684 32h-3.368c-1.314 0-2.383-1.070-2.383-2.384v-3.655c-0.034-0.013-0.068-0.028-0.101-0.042l-2.584 2.584c-0.451 0.451-1.049 0.698-1.686 0.698s-1.235-0.247-1.685-0.698l-2.381-2.381c-0.929-0.929-0.929-2.441 0-3.37l2.584-2.584c-0.014-0.035-0.029-0.069-0.043-0.102h-3.654c-1.314 0-2.383-1.070-2.384-2.383v-3.368c0.001-1.314 1.070-2.383 2.384-2.383h3.655c0.013-0.034 0.028-0.068 0.042-0.102l-2.585-2.584c-0.929-0.93-0.929-2.441 0-3.371l2.381-2.381c0.451-0.45 1.048-0.698 1.685-0.698s1.236 0.248 1.686 0.698l2.584 2.584c0.034-0.014 0.069-0.029 0.102-0.042v-3.654c0-1.314 1.069-2.384 2.383-2.384h3.368c1.314 0 2.383 1.069 2.383 2.383v3.655c0.034 0.014 0.068 0.028 0.102 0.042l2.585-2.585c0.451-0.45 1.049-0.698 1.685-0.698s1.235 0.247 1.685 0.697l2.382 2.382c0.45 0.45 0.698 1.049 0.697 1.686 0 0.637-0.248 1.235-0.699 1.685l-2.584 2.584c0.014 0.034 0.029 0.068 0.042 0.101h3.656c1.314 0.001 2.383 1.069 2.383 2.382l-0.001 3.368c0 0.636-0.247 1.235-0.698 1.685s-1.048 0.698-1.684 0.698v0h-3.656c-0.014 0.035-0.029 0.069-0.043 0.102l2.585 2.585c0.929 0.929 0.929 2.441 0 3.371l-2.381 2.381c-0.451 0.45-1.048 0.698-1.685 0.698s-1.236-0.248-1.686-0.699l-2.584-2.584c-0.034 0.014-0.069 0.029-0.102 0.042v3.655c0 1.315-1.069 2.384-2.383 2.384zM11.621 23.75c0.15 0 0.301 0.035 0.442 0.105 0.389 0.195 0.781 0.359 1.166 0.486 0.403 0.134 0.676 0.511 0.676 0.936v4.339c0 0.227 0.185 0.412 0.411 0.412h3.368c0.226 0 0.411-0.185 0.411-0.412v-4.339c0-0.424 0.273-0.802 0.676-0.936 0.385-0.128 0.778-0.292 1.165-0.486 0.38-0.192 0.839-0.116 1.14 0.183l3.070 3.070c0.105 0.105 0.227 0.121 0.292 0.121s0.186-0.016 0.291-0.12l2.381-2.38c0.16-0.161 0.16-0.421-0-0.583l-3.070-3.070c-0.3-0.3-0.375-0.76-0.184-1.14 0.195-0.388 0.359-0.781 0.487-1.167 0.134-0.403 0.511-0.676 0.935-0.676h4.34c0.148 0 0.246-0.074 0.291-0.12s0.12-0.142 0.12-0.291l0-3.367c0-0.227-0.185-0.412-0.413-0.412h-4.339c-0.424 0-0.802-0.272-0.935-0.675-0.129-0.387-0.292-0.78-0.487-1.166-0.191-0.38-0.116-0.839 0.184-1.14l3.071-3.071c0.105-0.105 0.12-0.227 0.12-0.291s-0.015-0.186-0.12-0.291l-2.381-2.381c-0.104-0.104-0.227-0.12-0.291-0.12s-0.187 0.015-0.292 0.12l-3.070 3.071c-0.301 0.3-0.76 0.376-1.14 0.183-0.386-0.195-0.779-0.358-1.164-0.486-0.403-0.134-0.676-0.511-0.676-0.936v-4.339c-0-0.227-0.185-0.412-0.412-0.412h-3.368c-0.226 0-0.411 0.185-0.411 0.412v4.339c0 0.425-0.273 0.802-0.676 0.936-0.386 0.128-0.778 0.292-1.166 0.487-0.38 0.192-0.839 0.116-1.14-0.184l-3.070-3.070c-0.106-0.105-0.228-0.121-0.292-0.121s-0.186 0.016-0.291 0.12l-2.381 2.381c-0.16 0.16-0.16 0.421 0 0.583l3.070 3.070c0.3 0.3 0.375 0.76 0.184 1.139-0.195 0.389-0.359 0.781-0.487 1.167-0.134 0.403-0.51 0.676-0.935 0.676h-4.339c-0.227 0.001-0.412 0.184-0.412 0.412v3.367c0 0.228 0.185 0.413 0.412 0.413h4.339c0.425 0 0.801 0.272 0.935 0.674 0.129 0.387 0.293 0.78 0.487 1.167 0.191 0.38 0.116 0.839-0.184 1.14l-3.070 3.070c-0.16 0.161-0.16 0.421 0 0.582l2.381 2.381c0.104 0.105 0.227 0.12 0.291 0.12s0.187-0.015 0.292-0.12l3.070-3.070c0.189-0.19 0.441-0.29 0.697-0.29zM16 20.703c-2.593 0-4.703-2.11-4.703-4.703s2.11-4.704 4.703-4.704 4.703 2.11 4.703 4.704c0 2.593-2.11 4.703-4.703 4.703zM16 13.269c-1.506 0-2.731 1.224-2.731 2.731s1.225 2.731 2.731 2.731c1.506-0 2.731-1.226 2.731-2.732s-1.226-2.731-2.731-2.731z"></path>
</svg>
