<!-- Generated by IcoMoon.io -->
<svg version="1.1" xmlns="http://www.w3.org/2000/svg" width="32" height="32" viewBox="0 0 32 32">
<title>icon-cloud-download</title>
<path d="M20.396 23.31l-2.403 2.404-0.637 1.341v-13.013h-2.656v12.947l-0.611-1.248-2.43-2.43-1.806 1.686 6.175 6.175 6.121-6.108z"></path>
<path d="M24.659 7.322h-0.133c-1.427-3.878-5.11-6.465-9.242-6.493-5.478-0.037-9.949 4.374-9.986 9.852 0 0.212 0 0.412 0 0.624-2.955 0.029-5.328 2.449-5.298 5.404s2.449 5.328 5.404 5.298h6.639v-2.656h-6.639c-1.496 0-2.709-1.213-2.709-2.709s1.213-2.709 2.709-2.709c0.345 0 2.656 0.106 2.656 0.106s-0.12-2.735-0.12-3.36c-0.054-3.465 2.352-6.484 5.742-7.204 3.917-0.833 7.767 1.668 8.599 5.584l0.279 1.235 1.248-0.226c0.28-0.057 0.564-0.088 0.85-0.093 2.589 0 4.687 2.099 4.687 4.687s-2.099 4.687-4.687 4.687h-4.648v2.656h4.648c4.054-0.001 7.34-3.287 7.341-7.341 0.001-4.056-3.286-7.344-7.341-7.345z"></path>
</svg>
