<!-- Generated by IcoMoon.io -->
<svg version="1.1" xmlns="http://www.w3.org/2000/svg" width="32" height="32" viewBox="0 0 32 32">
<path d="M28.509 4.945v-4.655h-28.509v27.345h4.073v4.073h27.927v-26.764h-3.491zM1.164 26.473v-25.018h26.182v3.491h-23.273v21.527h-2.909zM30.836 30.545h-25.6v-24.436h25.6v24.436z"></path>
<path d="M24.436 17.745h-5.818v-5.818c0-0.322-0.26-0.582-0.582-0.582s-0.582 0.26-0.582 0.582v5.818h-5.818c-0.322 0-0.582 0.26-0.582 0.582s0.26 0.582 0.582 0.582h5.818v5.818c0 0.322 0.26 0.582 0.582 0.582s0.582-0.26 0.582-0.582v-5.818h5.818c0.322 0 0.582-0.26 0.582-0.582s-0.26-0.582-0.582-0.582z"></path>
</svg>
