<!-- Generated by IcoMoon.io -->
<svg version="1.1" xmlns="http://www.w3.org/2000/svg" width="32" height="32" viewBox="0 0 32 32">
<title>icon-edit</title>
<path d="M30.829 4l-2.828-2.828c-0.781-0.781-1.806-1.172-2.829-1.172s-2.047 0.391-2.828 1.172l-17.172 17.172c-0.78 0.781-3.17 3.803-3.171 4.826l-2 8.83 8.828-2c0 0 4.047-2.391 4.828-3.172l17.173-17.172c1.562-1.562 1.562-4.096-0-5.656zM8.079 28.119l-5.428 1.23 1.299-5.738c0.018-0.082 0.032-0.166 0.040-0.248 0.004-0.012 0.015-0.029 0.019-0.041l4.522 4.523c-0.151 0.091-0.303 0.183-0.453 0.273zM12.246 25.41c-0.226 0.215-1.010 0.744-1.967 1.354l-5.181-5.182c0.531-0.729 1.123-1.461 1.487-1.824l12.931-12.93 5.656 5.656-12.926 12.926zM29.415 8.242l-2.829 2.828-5.656-5.657 2.829-2.828c0.377-0.379 0.879-0.586 1.413-0.586s1.037 0.209 1.415 0.586l2.828 2.828c0.378 0.377 0.585 0.879 0.585 1.414-0 0.533-0.208 1.037-0.585 1.414z"></path>
</svg>
