<?xml version="1.0" encoding="utf-8"?>
<!-- Generator: Adobe Illustrator 16.0.0, SVG Export Plug-In . SVG Version: 6.00 Build 0)  -->
<!DOCTYPE svg PUBLIC "-//W3C//DTD SVG 1.1//EN" "http://www.w3.org/Graphics/SVG/1.1/DTD/svg11.dtd">
<svg version="1.1" id="Layer_1" xmlns="http://www.w3.org/2000/svg" xmlns:xlink="http://www.w3.org/1999/xlink" x="0px" y="0px"
	 width="32px" height="32px" viewBox="0 0 32 32" enable-background="new 0 0 32 32" xml:space="preserve">
<g>
	<g>
		<g>
			<path d="M24.856,4.899c0.428,0,0.772-0.347,0.772-0.772V1.688C25.629,0.758,24.871,0,23.94,0H7.603
				C7.398,0,7.202,0.082,7.056,0.226L0.659,6.624C0.513,6.769,0.433,6.965,0.433,7.17v23.141C0.433,31.242,1.191,32,2.122,32h21.821
				c0.931,0,1.688-0.758,1.688-1.689V18.521c0-0.428-0.346-0.773-0.771-0.773s-0.772,0.346-0.772,0.773v11.791
				c0,0.08-0.063,0.145-0.144,0.145H2.121c-0.08,0-0.145-0.062-0.145-0.145V7.944h4.711c0.931,0,1.688-0.758,1.688-1.688v-4.71
				H23.94c0.08,0,0.145,0.064,0.145,0.145v2.438C24.085,4.554,24.431,4.899,24.856,4.899z M6.831,6.256
				c0,0.079-0.063,0.144-0.144,0.144H3.068L6.83,2.64L6.831,6.256L6.831,6.256z"/>
		</g>
	</g>
	<g>
		<g>
			<path d="M30.804,6.276l-0.908-0.909c-1.021-1.019-2.679-1.019-3.696,0l-7.214,7.214H6.472c-0.426,0-0.771,0.346-0.771,0.771
				s0.346,0.772,0.771,0.772h10.966l-4.647,4.65H6.472c-0.426,0-0.771,0.346-0.771,0.771s0.346,0.771,0.771,0.771h4.774
				l-0.013,0.014c-0.094,0.094-0.162,0.211-0.197,0.338l-1.193,4.297H6.472c-0.426,0-0.771,0.348-0.771,0.773
				s0.346,0.771,0.771,0.771h3.959c0,0,0.168-0.02,0.193-0.025c0.004,0,4.875-1.354,4.875-1.354
				c0.128-0.035,0.246-0.104,0.339-0.197L30.802,9.97C31.821,8.953,31.821,7.295,30.804,6.276z M11.541,24.631l0.63-2.27L13.81,24
				L11.541,24.631z M15.292,23.299l-2.42-2.42L25.224,8.524l2.422,2.42L15.292,23.299z M29.711,8.879l-0.974,0.974l-2.42-2.42
				l0.973-0.974c0.417-0.417,1.096-0.417,1.512,0l0.909,0.909C30.127,7.785,30.127,8.463,29.711,8.879z"/>
		</g>
	</g>
</g>
</svg>
