<!-- Generated by IcoMoon.io -->
<svg version="1.1" xmlns="http://www.w3.org/2000/svg" width="32" height="32" viewBox="0 0 32 32">
<path d="M30.353 12.444h-2.994c-0.481 0-0.878-0.265-1.062-0.709s-0.091-0.913 0.249-1.253l2.117-2.116c0.311-0.311 0.482-0.725 0.482-1.165s-0.171-0.854-0.482-1.166l-2.698-2.698c-0.622-0.622-1.707-0.623-2.331 0l-2.116 2.116c-0.34 0.34-0.809 0.434-1.253 0.249-0.444-0.184-0.709-0.581-0.709-1.062v-2.994c0-0.908-0.739-1.647-1.647-1.647h-3.816c-0.908 0-1.647 0.739-1.647 1.647v2.994c0 0.481-0.265 0.878-0.709 1.062-0.443 0.185-0.913 0.090-1.253-0.249l-2.116-2.116c-0.623-0.623-1.708-0.622-2.331 0l-2.698 2.698c-0.311 0.311-0.482 0.725-0.482 1.166s0.171 0.853 0.482 1.165l2.117 2.116c0.34 0.34 0.433 0.808 0.249 1.253s-0.581 0.709-1.062 0.709h-2.994c-0.908 0-1.647 0.739-1.647 1.647v3.816c0 0.909 0.739 1.648 1.647 1.648h2.994c0.481 0 0.878 0.265 1.062 0.709s0.091 0.913-0.249 1.253l-2.117 2.116c-0.311 0.311-0.482 0.725-0.482 1.165s0.171 0.854 0.482 1.166l2.698 2.698c0.623 0.623 1.707 0.624 2.331 0l2.116-2.117c0.34-0.34 0.808-0.433 1.253-0.249s0.709 0.581 0.709 1.062v2.994c0 0.908 0.739 1.647 1.647 1.647h3.816c0.908 0 1.647-0.739 1.647-1.647v-2.994c0-0.481 0.265-0.878 0.709-1.062s0.913-0.091 1.253 0.249l2.116 2.117c0.623 0.623 1.708 0.622 2.331 0l2.698-2.698c0.311-0.311 0.482-0.725 0.482-1.166s-0.171-0.853-0.482-1.165l-2.117-2.116c-0.34-0.34-0.433-0.808-0.249-1.253s0.581-0.709 1.063-0.709h2.994c0.908 0 1.647-0.739 1.647-1.647v-3.816c0-0.908-0.739-1.647-1.647-1.647zM30.815 17.908c0 0.255-0.207 0.462-0.462 0.462h-2.994c-0.962 0-1.789 0.552-2.157 1.441s-0.175 1.864 0.506 2.545l2.117 2.116c0.181 0.181 0.181 0.474 0 0.654l-2.698 2.698c-0.18 0.18-0.473 0.181-0.654 0l-2.116-2.117c-0.681-0.681-1.656-0.873-2.545-0.506s-1.441 1.195-1.441 2.157v2.994c0 0.255-0.207 0.462-0.462 0.462h-3.816c-0.255 0-0.462-0.207-0.462-0.462v-2.994c0-0.962-0.552-1.789-1.441-2.157-0.298-0.124-0.605-0.184-0.908-0.184-0.601 0-1.183 0.237-1.636 0.69l-2.116 2.117c-0.181 0.181-0.475 0.18-0.654 0l-2.698-2.698c-0.181-0.181-0.181-0.474 0-0.654l2.117-2.116c0.68-0.68 0.875-1.656 0.506-2.545s-1.195-1.441-2.157-1.441h-2.994c-0.255 0-0.462-0.207-0.462-0.462v-3.816c0-0.255 0.207-0.462 0.462-0.462h2.994c0.962 0 1.789-0.552 2.157-1.441s0.175-1.864-0.506-2.545l-2.117-2.116c-0.181-0.181-0.181-0.474 0-0.654l2.698-2.698c0.18-0.181 0.473-0.181 0.654 0l2.116 2.116c0.68 0.68 1.655 0.875 2.545 0.506 0.889-0.367 1.441-1.194 1.441-2.156v-2.994c0-0.255 0.207-0.462 0.462-0.462h3.816c0.255 0 0.463 0.207 0.463 0.462v2.994c0 0.962 0.552 1.789 1.441 2.157 0.89 0.369 1.864 0.174 2.545-0.506l2.116-2.116c0.181-0.181 0.475-0.181 0.654 0l2.698 2.698c0.181 0.181 0.181 0.474 0 0.654l-2.117 2.116c-0.68 0.68-0.875 1.656-0.506 2.545s1.195 1.441 2.157 1.441h2.994c0.255-0.001 0.462 0.207 0.462 0.462v3.816z"></path>
<path d="M16 10.667c-2.941 0-5.333 2.392-5.333 5.333s2.392 5.333 5.333 5.333 5.333-2.392 5.333-5.333-2.392-5.333-5.333-5.333zM16 20.148c-2.287 0-4.148-1.861-4.148-4.148s1.861-4.148 4.148-4.148 4.148 1.861 4.148 4.148-1.861 4.148-4.148 4.148z"></path>
</svg>
