<!-- Generated by IcoMoon.io -->
<svg version="1.1" xmlns="http://www.w3.org/2000/svg" width="32" height="32" viewBox="0 0 32 32">
<title>icon-image</title>
<path d="M30 4h-28c-1.105 0-2 0.896-2 2v20c0 1.105 0.895 2 2 2h28c1.105 0 2-0.895 2-2v-20c0-1.104-0.895-2-2-2zM30 26h-28v-20h28v20zM6.293 23.707c0.195 0.195 0.451 0.293 0.707 0.293s0.512-0.098 0.707-0.293l5.49-5.49 3.355 1.678c0.433 0.217 0.958 0.093 1.247-0.295l5.152-6.869 3.216 4.824c0.305 0.459 0.926 0.581 1.387 0.277 0.46-0.307 0.584-0.927 0.277-1.387l-4-6c-0.18-0.271-0.48-0.435-0.805-0.445-0.314-0.011-0.634 0.141-0.827 0.4l-5.498 7.332-3.254-1.627c-0.383-0.193-0.848-0.117-1.154 0.188l-6 6c-0.391 0.39-0.391 1.023 0 1.414zM8 16c2.206 0 4-1.794 4-4s-1.794-4-4-4-4 1.794-4 4 1.794 4 4 4zM8 10c1.105 0 2 0.895 2 2s-0.895 2-2 2-2-0.895-2-2 0.894-2 2-2z"></path>
</svg>
