<!-- Generated by IcoMoon.io -->
<svg version="1.1" xmlns="http://www.w3.org/2000/svg" width="32" height="32" viewBox="0 0 32 32">
<path d="M16 17.292c-1.751 0-3.176 1.425-3.176 3.176 0 0.868 0.361 1.708 0.991 2.306v2.867c0 1.205 0.98 2.185 2.185 2.185s2.185-0.98 2.185-2.185v-2.867c0.63-0.597 0.991-1.437 0.991-2.306-0-1.751-1.425-3.176-3.176-3.176zM17.124 21.66c-0.303 0.286-0.477 0.685-0.477 1.096v2.885c0 0.357-0.29 0.647-0.647 0.647s-0.647-0.29-0.647-0.647v-2.885c0-0.411-0.174-0.81-0.477-1.095-0.332-0.313-0.514-0.736-0.514-1.192 0-0.903 0.735-1.638 1.638-1.638s1.638 0.735 1.638 1.638c0 0.456-0.183 0.88-0.514 1.192z"></path>
<path d="M25.311 13.117h-2.307v-6.113c0-3.862-3.142-7.005-7.004-7.005s-7.004 3.142-7.004 7.005v6.113h-2.307c-1.272 0-2.307 1.035-2.307 2.307v14.269c0 1.272 1.035 2.307 2.307 2.307h18.622c1.272 0 2.307-1.035 2.307-2.307v-14.269c0-1.272-1.035-2.307-2.307-2.307zM10.534 7.005c0-3.014 2.452-5.466 5.466-5.466s5.466 2.452 5.466 5.466v6.113h-10.933v-6.113zM26.080 29.693v0c0 0.424-0.345 0.769-0.769 0.769h-18.622c-0.424 0-0.769-0.345-0.769-0.769v-14.269c0-0.424 0.345-0.769 0.769-0.769h18.622c0.424 0 0.769 0.345 0.769 0.769v14.269z"></path>
</svg>
