<!-- Generated by IcoMoon.io -->
<svg version="1.1" xmlns="http://www.w3.org/2000/svg" width="32" height="32" viewBox="0 0 32 32">
<title>icon-folder-open</title>
<path d="M31.837 12.498c-0.129-0.15-0.317-0.237-0.515-0.237h-1.434v-7.602c0-0.521-0.424-0.944-0.944-0.944h-16.379l-1.327-2.212c-0.169-0.283-0.48-0.459-0.81-0.459h-7.37c-0.521 0-0.944 0.424-0.944 0.944v10.272h-1.434c-0.198 0-0.386 0.086-0.514 0.236s-0.187 0.348-0.157 0.545l2.627 17.338c0.052 0.334 0.334 0.576 0.671 0.576h25.389c0.338 0 0.62-0.242 0.671-0.577l2.626-17.334c0.030-0.196-0.026-0.395-0.155-0.545zM3.181 2.113h7.175l1.327 2.212c0.169 0.283 0.48 0.459 0.81 0.459h16.326v7.478h-1.068v-3.739h-23.502v3.739h-1.068v-10.148zM26.683 12.261h-21.365v-2.671h21.365v2.671zM28.36 29.888h-24.72l-2.508-16.558h29.737l-2.509 16.558z"></path>
</svg>
