<!-- Generated by IcoMoon.io -->
<svg version="1.1" xmlns="http://www.w3.org/2000/svg" width="32" height="32" viewBox="0 0 32 32">
<title>icon-print</title>
<path d="M20 26h-8v2h8v-2zM20 18h-8v2h8v-2zM20 22h-8v2h8v-2zM27 12c-0.553 0-1 0.447-1 1s0.447 1 1 1 1-0.447 1-1-0.447-1-1-1zM27 16c-0.553 0-1 0.447-1 1s0.447 1 1 1 1-0.447 1-1-0.447-1-1-1zM27 20c-0.553 0-1 0.447-1 1s0.447 1 1 1 1-0.447 1-1-0.447-1-1-1zM28 8h-4v-4c0-2.209-1.791-4-4-4h-8c-2.209 0-4 1.791-4 4v4h-4c-2.209 0-4 1.791-4 4v10c0 2.209 1.791 4 4 4h4v2c0 2.209 1.791 4 4 4h8c2.209 0 4-1.791 4-4v-2h4c2.209 0 4-1.791 4-4v-10c0-2.209-1.791-4-4-4zM10 4c0-1.103 0.898-2 2-2h8c1.102 0 2 0.897 2 2v4h-12v-4zM22 26v2c0 1.104-0.898 2-2 2h-8c-1.102 0-2-0.896-2-2v-12h12v10zM30 22c0 1.104-0.898 2-2 2h-4v-10h-16v10h-4c-1.103 0-2-0.896-2-2v-10c0-1.104 0.897-2 2-2h24c1.102 0 2 0.896 2 2v10z"></path>
</svg>
