<!-- Generated by IcoMoon.io -->
<svg version="1.1" xmlns="http://www.w3.org/2000/svg" width="32" height="32" viewBox="0 0 32 32">
<path d="M26.667 17.067c1.47 0 2.667-1.196 2.667-2.667s-1.196-2.667-2.667-2.667-2.667 1.196-2.667 2.667 1.196 2.667 2.667 2.667zM26.667 12.8c0.882 0 1.6 0.718 1.6 1.6s-0.718 1.6-1.6 1.6-1.6-0.718-1.6-1.6 0.718-1.6 1.6-1.6z"></path>
<path d="M22.4 22.933h-12.8c-0.295 0-0.533 0.238-0.533 0.533s0.238 0.533 0.533 0.533h12.8c0.295 0 0.533-0.238 0.533-0.533s-0.238-0.533-0.533-0.533z"></path>
<path d="M22.4 25.6h-12.8c-0.295 0-0.533 0.238-0.533 0.533s0.238 0.533 0.533 0.533h12.8c0.295 0 0.533-0.238 0.533-0.533s-0.238-0.533-0.533-0.533z"></path>
<path d="M27.2 9.067v-9.067h-22.4v9.067h-4.8v18.133h3.2v1.6h1.6v3.2h22.4v-3.2h1.6v-1.6h3.2v-18.133h-4.8zM5.867 1.067h20.267v8h-20.267v-8zM4.8 10.133h26.133v8.533h-29.867v-8.533h3.733zM4.267 27.733v-3.733c0-0.295-0.238-0.533-0.533-0.533s-0.533 0.238-0.533 0.533v2.133h-2.133v-6.4h3.733v8h-0.533zM26.133 30.933h-20.267v-11.2h20.267v11.2zM28.8 26.133v-2.133c0-0.295-0.238-0.533-0.533-0.533s-0.533 0.238-0.533 0.533v3.733h-0.533v-8h3.733v6.4h-2.133z"></path>
</svg>
