<!-- Generated by IcoMoon.io -->
<svg version="1.1" xmlns="http://www.w3.org/2000/svg" width="32" height="32" viewBox="0 0 32 32">
<path d="M24.858 4.899c0.427 0 0.772-0.346 0.772-0.772v-2.437c0-0.931-0.757-1.689-1.688-1.689h-16.34c-0.205 0-0.401 0.081-0.546 0.226l-6.398 6.398c-0.145 0.145-0.226 0.341-0.226 0.546v23.14c0 0.931 0.758 1.689 1.689 1.689h21.822c0.931 0 1.688-0.758 1.688-1.689v-11.793c0-0.427-0.346-0.772-0.772-0.772s-0.772 0.346-0.772 0.772v11.793c0 0.080-0.064 0.144-0.144 0.144h-21.822c-0.080 0-0.144-0.065-0.144-0.144v-22.367h4.71c0.931 0 1.688-0.758 1.688-1.689v-4.71h15.567c0.079 0 0.144 0.065 0.144 0.144v2.437c0 0.427 0.346 0.772 0.772 0.772zM6.83 6.255c0 0.079-0.064 0.144-0.144 0.144h-3.617l3.761-3.761v3.617z"></path>
<path d="M30.804 6.275l-0.909-0.909c-1.019-1.019-2.677-1.019-3.696 0l-7.214 7.214h-12.513c-0.427 0-0.772 0.346-0.772 0.772s0.346 0.772 0.772 0.772h10.968l-4.649 4.649h-6.319c-0.427 0-0.772 0.346-0.772 0.772s0.346 0.772 0.772 0.772h4.775l-0.012 0.012c-0.094 0.094-0.162 0.211-0.198 0.34l-1.193 4.297h-3.371c-0.427 0-0.772 0.346-0.772 0.772s0.346 0.772 0.772 0.772h3.958c0 0 0.169-0.019 0.194-0.026 0.004-0.001 4.875-1.353 4.875-1.353 0.128-0.036 0.245-0.104 0.34-0.198l14.965-14.965c1.019-1.019 1.019-2.677-0-3.696zM11.54 24.63l0.63-2.27 1.64 1.64-2.27 0.63zM15.293 23.297l-2.42-2.42 12.353-12.353 2.42 2.42-12.353 12.353zM29.712 8.878l-0.973 0.973-2.42-2.42 0.973-0.973c0.417-0.417 1.095-0.417 1.511 0l0.909 0.909c0.417 0.417 0.417 1.095 0 1.511z"></path>
</svg>
