<!-- Generated by IcoMoon.io -->
<svg version="1.1" xmlns="http://www.w3.org/2000/svg" width="32" height="32" viewBox="0 0 32 32">
<path d="M31.448 3.31h-30.897c-0.305 0-0.552 0.247-0.552 0.552v24.276c0 0.305 0.247 0.552 0.552 0.552h30.897c0.305 0 0.552-0.247 0.552-0.552v-24.276c0-0.305-0.247-0.552-0.552-0.552zM30.897 27.586h-29.793v-23.172h29.793v23.172z"></path>
<path d="M8.828 15.524c1.694 0 3.073-1.378 3.073-3.072 0-1.695-1.378-3.073-3.073-3.073s-3.073 1.378-3.073 3.073c0 1.694 1.378 3.073 3.073 3.073zM8.828 10.483c1.086 0 1.969 0.884 1.969 1.969s-0.883 1.969-1.969 1.969-1.969-0.883-1.969-1.969 0.883-1.97 1.969-1.97z"></path>
<path d="M3.862 25.379c0.129 0 0.259-0.045 0.364-0.137l9-7.924 5.684 5.683c0.216 0.216 0.564 0.216 0.78 0s0.216-0.564 0-0.78l-2.652-2.652 5.065-5.547 6.213 5.695c0.225 0.206 0.574 0.19 0.78-0.034s0.191-0.574-0.034-0.78l-6.621-6.069c-0.108-0.099-0.252-0.148-0.397-0.145-0.146 0.007-0.284 0.071-0.383 0.179l-5.404 5.918-2.617-2.617c-0.206-0.206-0.536-0.216-0.755-0.024l-9.389 8.266c-0.229 0.201-0.251 0.55-0.050 0.779 0.109 0.124 0.262 0.187 0.414 0.187z"></path>
</svg>
