<!-- Generated by IcoMoon.io -->
<svg version="1.1" xmlns="http://www.w3.org/2000/svg" width="32" height="32" viewBox="0 0 32 32">
<title>icon-edit-page</title>
<path d="M2 28v-24c0-1.103 0.898-2 2-2h20c1.104 0 2 0.897 2 2v11.758l2-2v-9.758c0-2.209-1.791-4-4-4h-20c-2.209 0-4 1.791-4 4v24c0 2.209 1.791 4 4 4h11v-2h-11c-1.101 0-2-0.896-2-2zM22 6h-16v2h16v-2zM22 10h-16v2h16v-2zM22 14h-16v2h16v-2zM6 20h8v-2h-8v2zM31.414 18l-1.414-1.414c-0.391-0.391-0.902-0.586-1.414-0.586s-1.023 0.195-1.414 0.586l-8.586 8.586c-0.391 0.39-1.586 1.901-1.586 2.413l-1 4.415 4.414-1c0 0 2.023-1.195 2.414-1.586l8.586-8.586c0.781-0.781 0.781-2.048 0-2.828zM22.123 28.705c-0.113 0.108-0.505 0.372-0.983 0.677l-2.591-2.591c0.266-0.364 0.561-0.73 0.744-0.912l6.465-6.465 2.828 2.828-6.463 6.463z"></path>
</svg>
