<?xml version="1.0" encoding="utf-8"?>
<!-- Generator: Adobe Illustrator 16.0.0, SVG Export Plug-In . SVG Version: 6.00 Build 0)  -->
<!DOCTYPE svg PUBLIC "-//W3C//DTD SVG 1.1//EN" "http://www.w3.org/Graphics/SVG/1.1/DTD/svg11.dtd">
<svg version="1.1" id="Capa_1" xmlns="http://www.w3.org/2000/svg" xmlns:xlink="http://www.w3.org/1999/xlink" x="0px" y="0px"
	 width="32px" height="32px" viewBox="0 0 32 32" enable-background="new 0 0 32 32" xml:space="preserve">
<g>
	<path d="M29.906,3.314h-2.781h-4.477V1.086c0-0.6-0.486-1.086-1.086-1.086H10.438c-0.6,0-1.086,0.486-1.086,1.086v2.229H4.876
		h-2.78c-0.602,0-1.088,0.486-1.088,1.086c0,0.601,0.486,1.086,1.088,1.086h1.77L5.688,30.99C5.729,31.561,6.201,32,6.771,32H25.23
		c0.569,0,1.043-0.439,1.084-1.009l1.822-25.503h1.77c0.6,0,1.086-0.486,1.086-1.086C30.992,3.802,30.506,3.314,29.906,3.314z
		 M11.525,2.173h8.951v1.142h-8.951V2.173L11.525,2.173z M24.219,29.827H7.783L6.044,5.488h4.396h11.123h4.396L24.219,29.827z"/>
	<path d="M16,9.113c-0.6,0-1.086,0.486-1.086,1.086v14.914c0,0.601,0.486,1.087,1.086,1.087s1.085-0.486,1.085-1.087V10.2
		C17.086,9.6,16.6,9.113,16,9.113z"/>
	<path d="M11.186,10.123c-0.041-0.6-0.564-1.053-1.16-1.006c-0.6,0.042-1.049,0.562-1.006,1.16l1.064,14.914
		c0.041,0.572,0.518,1.01,1.083,1.01c0.026,0,0.052-0.001,0.079-0.003c0.6-0.044,1.049-0.562,1.006-1.161L11.186,10.123z"/>
	<path d="M20.816,10.123l-1.064,14.914c-0.043,0.599,0.406,1.117,1.006,1.161c0.025,0.002,0.053,0.003,0.078,0.003
		c0.564,0,1.041-0.438,1.082-1.01l1.066-14.914c0.043-0.598-0.408-1.118-1.006-1.16C21.383,9.07,20.859,9.523,20.816,10.123z"/>
</g>
</svg>
