<!-- Generated by IcoMoon.io -->
<svg version="1.1" xmlns="http://www.w3.org/2000/svg" width="32" height="32" viewBox="0 0 32 32">
<path d="M27.996 6.477c-0.002-0.192-0.076-0.381-0.218-0.522l-5.735-5.735c-0-0-0-0-0.001-0.001-0.135-0.135-0.323-0.219-0.529-0.219h-15.933c-0.87 0-1.577 0.708-1.577 1.577v28.845c0 0.87 0.707 1.577 1.577 1.577h20.84c0.87 0 1.577-0.707 1.577-1.577v-23.938c0-0.003-0.001-0.005-0.002-0.008zM22.262 2.558l3.177 3.177h-3.098c-0.043 0-0.079-0.035-0.079-0.079v-3.098zM26.499 30.423c0 0.043-0.035 0.079-0.079 0.079h-20.84c-0.043 0-0.079-0.035-0.079-0.079v-28.845c0-0.043 0.035-0.079 0.079-0.079h15.184v4.158c0 0.87 0.708 1.577 1.577 1.577h4.158v23.189z"></path>
<path d="M22.631 10.251h-13.261c-0.414 0-0.749 0.335-0.749 0.749s0.335 0.749 0.749 0.749h13.261c0.414 0 0.749-0.335 0.749-0.749s-0.335-0.749-0.749-0.749z"></path>
<path d="M22.631 14.772h-13.261c-0.414 0-0.749 0.335-0.749 0.749s0.335 0.749 0.749 0.749h13.261c0.414 0 0.749-0.335 0.749-0.749s-0.335-0.749-0.749-0.749z"></path>
<path d="M22.631 19.293h-13.261c-0.414 0-0.749 0.335-0.749 0.749s0.335 0.749 0.749 0.749h13.261c0.414 0 0.749-0.335 0.749-0.749s-0.335-0.749-0.749-0.749z"></path>
<path d="M16 23.814h-6.63c-0.414 0-0.749 0.335-0.749 0.749s0.335 0.749 0.749 0.749h6.63c0.414 0 0.749-0.335 0.749-0.749s-0.335-0.749-0.749-0.749z"></path>
</svg>
