<!-- Generated by IcoMoon.io -->
<svg version="1.1" xmlns="http://www.w3.org/2000/svg" width="32" height="32" viewBox="0 0 32 32">
<path d="M31.185 21.247c-0.45 0-0.815 0.365-0.815 0.815v3.113c0 1.797-1.462 3.258-3.258 3.258h-22.225c-1.797 0-3.258-1.462-3.258-3.258v-3.113c0-0.45-0.365-0.815-0.815-0.815s-0.815 0.365-0.815 0.815v3.113c0 2.695 2.193 4.888 4.888 4.888h22.225c2.695 0 4.888-2.193 4.888-4.888v-3.113c0-0.45-0.365-0.815-0.815-0.815z"></path>
<path d="M26.24 24.457h-20.479c-0.45 0-0.815 0.365-0.815 0.815s0.365 0.815 0.815 0.815h20.479c0.45 0 0.815-0.365 0.815-0.815s-0.365-0.815-0.815-0.815z"></path>
<path d="M24.18 8.552l-6.823-6.096c-0.773-0.691-1.94-0.691-2.714 0l-6.823 6.096c-0.336 0.3-0.365 0.815-0.065 1.15s0.815 0.365 1.15 0.065l6.28-5.61v15.788c0 0.45 0.365 0.815 0.815 0.815s0.815-0.365 0.815-0.815v-15.788l6.28 5.61c0.155 0.139 0.349 0.207 0.542 0.207 0.224 0 0.447-0.092 0.608-0.272 0.3-0.336 0.271-0.85-0.065-1.15z"></path>
</svg>
