<!-- Generated by IcoMoon.io -->
<svg version="1.1" xmlns="http://www.w3.org/2000/svg" width="32" height="32" viewBox="0 0 32 32">
<title>icon-trash</title>
<path d="M30.479 5.521c-0.125-0.125-0.285-0.187-0.479-0.187h-6.438l-1.458-3.479c-0.208-0.514-0.583-0.952-1.125-1.313s-1.091-0.542-1.646-0.542h-6.667c-0.555 0-1.104 0.18-1.646 0.542s-0.917 0.799-1.125 1.313l-1.458 3.479h-6.438c-0.195 0-0.354 0.063-0.479 0.187s-0.187 0.285-0.187 0.479v1.333c0 0.194 0.062 0.354 0.187 0.479s0.285 0.187 0.479 0.187h2v19.834c0 1.153 0.326 2.136 0.979 2.948s1.438 1.219 2.354 1.219h17.334c0.917 0 1.702-0.42 2.354-1.26s0.979-1.837 0.979-2.99v-19.751h2c0.194 0 0.354-0.062 0.479-0.187s0.188-0.285 0.188-0.479v-1.333c0-0.194-0.063-0.354-0.187-0.479zM12.354 2.895c0.097-0.125 0.215-0.202 0.354-0.229h6.604c0.139 0.028 0.257 0.104 0.354 0.229l1 2.438h-9.334l1.021-2.438zM25.334 27.75c0 0.305-0.048 0.587-0.146 0.844s-0.198 0.444-0.302 0.562c-0.104 0.118-0.177 0.177-0.219 0.177h-17.334c-0.042 0-0.114-0.059-0.219-0.177s-0.205-0.306-0.302-0.562c-0.097-0.257-0.146-0.538-0.146-0.844v-19.751h18.667v19.751z"></path>
<path d="M10 25.334h1.333c0.195 0 0.354-0.062 0.479-0.187s0.187-0.285 0.187-0.479v-12c0-0.194-0.063-0.354-0.187-0.479s-0.284-0.187-0.479-0.187h-1.333c-0.195 0-0.354 0.062-0.479 0.187s-0.187 0.285-0.187 0.479v12c0 0.195 0.062 0.354 0.187 0.479s0.285 0.187 0.479 0.187z"></path>
<path d="M15.333 25.334h1.333c0.195 0 0.354-0.062 0.479-0.187s0.187-0.285 0.187-0.479v-12c0-0.194-0.062-0.354-0.187-0.479s-0.284-0.187-0.479-0.187h-1.333c-0.194 0-0.354 0.062-0.479 0.187s-0.187 0.285-0.187 0.479v12c0 0.195 0.062 0.354 0.187 0.479s0.285 0.187 0.479 0.187z"></path>
<path d="M20.667 25.334h1.333c0.195 0 0.355-0.062 0.479-0.187s0.187-0.285 0.187-0.479v-12c0-0.194-0.062-0.354-0.187-0.479s-0.285-0.187-0.479-0.187h-1.333c-0.195 0-0.354 0.062-0.48 0.187s-0.187 0.285-0.187 0.479v12c0 0.195 0.062 0.354 0.187 0.479s0.285 0.187 0.48 0.187z"></path>
</svg>
