<?xml version="1.0" encoding="utf-8"?>
<!-- Generator: Adobe Illustrator 16.0.0, SVG Export Plug-In . SVG Version: 6.00 Build 0)  -->
<!DOCTYPE svg PUBLIC "-//W3C//DTD SVG 1.1//EN" "http://www.w3.org/Graphics/SVG/1.1/DTD/svg11.dtd">
<svg version="1.1" id="Capa_1" xmlns="http://www.w3.org/2000/svg" xmlns:xlink="http://www.w3.org/1999/xlink" x="0px" y="0px"
	 width="32px" height="32px" viewBox="0 0 32 32" enable-background="new 0 0 32 32" xml:space="preserve">
<g>
	<path fill="#231F20" d="M16,0C7.164,0,0,7.164,0,16c0,8.837,7.164,16,16,16c8.837,0,16-7.163,16-16C32,7.164,24.837,0,16,0z M16,29
		C8.82,29,3,23.18,3,16C3,8.82,8.82,3,16,3c7.18,0,13,5.82,13,13C29,23.18,23.18,29,16,29z"/>
	<polygon fill="#231F20" points="17.381,18.65 17.908,7.779 14.092,7.779 14.645,18.65 	"/>
	<path fill="#231F20" d="M16.012,19.852c-1.271,0-2.16,0.912-2.16,2.188c0,1.248,0.864,2.188,2.16,2.188s2.136-0.938,2.136-2.188
		C18.125,20.764,17.285,19.852,16.012,19.852z"/>
</g>
</svg>
