<!-- Generated by IcoMoon.io -->
<svg version="1.1" xmlns="http://www.w3.org/2000/svg" width="32" height="32" viewBox="0 0 32 32">
<title>invalid</title>
<path d="M16 0c-8.836 0-16 7.164-16 16 0 8.837 7.164 16 16 16 8.837 0 16-7.163 16-16s-7.163-16-16-16zM16 29c-7.18 0-13-5.82-13-13s5.82-13 13-13c7.18 0 13 5.82 13 13s-5.82 13-13 13z"></path>
<path d="M17.381 18.65l0.527-10.871h-3.816l0.553 10.871z"></path>
<path d="M16.012 19.852c-1.271 0-2.16 0.912-2.16 2.188 0 1.248 0.864 2.188 2.16 2.188s2.136-0.938 2.136-2.188c-0.023-1.276-0.863-2.188-2.136-2.188z"></path>
</svg>
