<?xml version="1.0" encoding="utf-8"?>
<!-- Generator: Adobe Illustrator 16.0.0, SVG Export Plug-In . SVG Version: 6.00 Build 0)  -->
<!DOCTYPE svg PUBLIC "-//W3C//DTD SVG 1.1//EN" "http://www.w3.org/Graphics/SVG/1.1/DTD/svg11.dtd">
<svg version="1.1" id="Capa_1" xmlns="http://www.w3.org/2000/svg" xmlns:xlink="http://www.w3.org/1999/xlink" x="0px" y="0px"
	 width="32px" height="32px" viewBox="0 0 32 32" enable-background="new 0 0 32 32" xml:space="preserve">
<g>
	<path fill="none" d="M20.784,15.829l-3.573,11.689h2.738l0.835-3.004h3.348l0.901,3.004h2.842l-3.624-11.689H20.784z
		 M21.162,22.541l0.695-2.482c0.191-0.676,0.363-1.558,0.539-2.254h0.035c0.172,0.693,0.381,1.56,0.59,2.254l0.726,2.482H21.162z"/>
	<path fill="#090509" d="M11.99,17.246v-1.319c-0.736-0.502-1.433-1.098-2.074-1.805c-1.859,1.796-3.639,2.935-3.839,3.062
		l-0.169,0.104l-1.024-1.637l0.167-0.107c0.021-0.015,1.832-1.162,3.661-2.954c-1.679-2.449-2.325-4.916-2.35-5.022L6.312,7.379
		l1.872-0.481l0.046,0.19c0.004,0.021,0.538,1.995,1.834,4.027c1.282-1.558,2.028-3.059,2.218-4.475h-7.86V4.54h4.333V3.371h2.02
		v1.167h4.333v2.103h-0.872c-0.203,1.968-1.203,4.006-2.978,6.066c0.238,0.268,0.483,0.513,0.732,0.747v-0.136v-0.853
		c0-0.703,0.568-1.271,1.271-1.271h5.656V1.19c0-0.176-0.14-0.318-0.317-0.318H0.318C0.142,0.872,0,1.014,0,1.19v18.279
		c0,0.178,0.142,0.318,0.318,0.318H11.99V17.246z"/>
	<path fill="#090509" d="M22.432,17.805h-0.035c-0.176,0.696-0.348,1.578-0.539,2.254l-0.695,2.482h2.585l-0.726-2.482
		C22.812,19.364,22.604,18.498,22.432,17.805z"/>
	<path fill="#090509" d="M31.682,12.213H13.403c-0.175,0-0.318,0.142-0.318,0.318v18.281c0,0.176,0.143,0.315,0.318,0.315h18.279
		c0.178,0,0.318-0.14,0.318-0.315V12.531C32,12.357,31.859,12.213,31.682,12.213z M25.033,27.518l-0.901-3.004h-3.348l-0.835,3.004
		h-2.738l3.573-11.689h3.467l3.624,11.689H25.033z"/>
	<polygon fill="#090509" points="8.228,20.588 5.688,20.588 5.688,24.812 7.791,26.895 12.517,26.895 12.517,24.354 8.228,24.354 	
		"/>
</g>
</svg>
