<!-- Generated by IcoMoon.io -->
<svg version="1.1" xmlns="http://www.w3.org/2000/svg" width="32" height="32" viewBox="0 0 32 32">
<title>language</title>
<path d="M11.99 17.246v-1.319c-0.736-0.502-1.433-1.098-2.074-1.805-1.859 1.796-3.639 2.935-3.839 3.062l-0.169 0.104-1.024-1.637 0.167-0.107c0.021-0.015 1.832-1.162 3.661-2.954-1.679-2.449-2.325-4.916-2.35-5.022l-0.050-0.189 1.872-0.481 0.046 0.19c0.004 0.021 0.538 1.995 1.834 4.027 1.282-1.558 2.028-3.059 2.218-4.475h-7.86v-2.1h4.333v-1.169h2.020v1.167h4.333v2.103h-0.872c-0.203 1.968-1.203 4.006-2.978 6.066 0.238 0.268 0.483 0.513 0.732 0.747v-0.989c0-0.703 0.568-1.271 1.271-1.271h5.656v-10.004c0-0.176-0.14-0.318-0.317-0.318h-18.282c-0.176 0-0.318 0.142-0.318 0.318v18.279c0 0.178 0.142 0.318 0.318 0.318h11.672v-2.541z"></path>
<path d="M22.432 17.805h-0.035c-0.176 0.696-0.348 1.578-0.539 2.254l-0.695 2.482h2.585l-0.726-2.482c-0.21-0.695-0.418-1.561-0.59-2.254z"></path>
<path d="M31.682 12.213h-18.279c-0.175 0-0.318 0.142-0.318 0.318v18.281c0 0.176 0.143 0.315 0.318 0.315h18.279c0.178 0 0.318-0.14 0.318-0.315v-18.281c0-0.174-0.141-0.318-0.318-0.318zM25.033 27.518l-0.901-3.004h-3.348l-0.835 3.004h-2.738l3.573-11.689h3.467l3.624 11.689h-2.842z"></path>
<path d="M8.228 20.588h-2.54v4.224l2.103 2.083h4.726v-2.541h-4.289z"></path>
</svg>
