<!-- Generated by IcoMoon.io -->
<svg version="1.1" xmlns="http://www.w3.org/2000/svg" width="32" height="32" viewBox="0 0 32 32">
<title>md-bold</title>
<path d="M4.475 31.999v-1.071c0.809-0.47 1.479-0.949 2.012-1.421 0.091-0.745 0.152-1.657 0.184-2.734 0.062-2.229 0.092-6.27 0.092-12.132 0-1.567-0.040-4.013-0.117-7.332-0.046-2.559-0.129-4.023-0.251-4.387-0.077-0.229-0.19-0.388-0.343-0.48-0.318-0.211-1.46-0.379-3.426-0.501v-1.895c0.333 0 0.686 0.006 1.050 0.021l3.154 0.092c1.035 0.016 2.323 0.025 3.86 0.025 1.524 0 2.718-0.016 3.588-0.046 2.192-0.091 3.625-0.138 4.292-0.138 2.518 0 4.455 0.261 5.813 0.778 1.366 0.518 2.363 1.268 2.994 2.25 0.632 0.978 0.944 2.082 0.944 3.3 0 1.31-0.356 2.528-1.079 3.654-0.729 1.126-1.65 2.002-2.777 2.626-0.674 0.379-2.161 0.891-4.475 1.53 2.768 0.334 4.699 0.778 5.789 1.326s1.962 1.405 2.617 2.569c0.655 1.163 0.979 2.465 0.979 3.896 0 1.506-0.337 2.875-1.003 4.099-0.674 1.225-1.534 2.274-2.594 3.137-1.059 0.87-2.273 1.559-3.646 2.074-1.372 0.508-3.079 0.761-5.136 0.761l-7.675-0.133c-1.237-0.001-2.85 0.041-4.846 0.132zM13.131 13.224l1.326 0.024c1.038 0 1.996-0.085 2.881-0.25 0.882-0.168 1.597-0.462 2.143-0.882 0.551-0.417 1.013-1.041 1.386-1.87 0.374-0.828 0.561-1.788 0.561-2.868 0-1.096-0.215-2.030-0.643-2.798-0.429-0.767-0.98-1.316-1.665-1.644-0.686-0.328-1.714-0.493-3.086-0.493-0.989 0-1.888 0.062-2.693 0.184-0.092 1.097-0.147 2.36-0.162 3.793l-0.043 3.539v3.265h-0.005zM13.224 29.442c0.502 0.109 1.447 0.158 2.834 0.158 1.885 0 3.413-0.622 4.576-1.858 1.169-1.243 1.748-3.021 1.748-5.334 0-1.648-0.298-2.976-0.912-3.998-0.605-1.022-1.414-1.743-2.417-2.159-1.011-0.419-2.395-0.627-4.161-0.627-0.624 0-1.209 0.030-1.761 0.092v10.414l0.046 2.719c0.001 0.070 0.016 0.275 0.047 0.593z"></path>
</svg>
