<?xml version="1.0" encoding="utf-8"?>
<!-- Generator: Adobe Illustrator 16.0.0, SVG Export Plug-In . SVG Version: 6.00 Build 0)  -->
<!DOCTYPE svg PUBLIC "-//W3C//DTD SVG 1.1//EN" "http://www.w3.org/Graphics/SVG/1.1/DTD/svg11.dtd">
<svg version="1.1" id="Layer_1" xmlns="http://www.w3.org/2000/svg" xmlns:xlink="http://www.w3.org/1999/xlink" x="0px" y="0px"
	 width="32px" height="32px" viewBox="0 0 32 32" enable-background="new 0 0 32 32" xml:space="preserve">
<g>
	<path d="M4.475,31.999v-1.071c0.809-0.47,1.479-0.949,2.012-1.421c0.091-0.745,0.152-1.657,0.184-2.734
		c0.062-2.229,0.092-6.27,0.092-12.132c0-1.567-0.04-4.013-0.117-7.332C6.6,4.75,6.517,3.286,6.395,2.922
		c-0.077-0.229-0.19-0.388-0.343-0.48c-0.318-0.211-1.46-0.379-3.426-0.501V0.046c0.333,0,0.686,0.006,1.05,0.021L6.83,0.159
		c1.035,0.016,2.323,0.025,3.86,0.025c1.524,0,2.718-0.016,3.588-0.046c2.192-0.091,3.625-0.138,4.292-0.138
		c2.518,0,4.455,0.261,5.813,0.778c1.366,0.518,2.363,1.268,2.994,2.25c0.632,0.978,0.944,2.082,0.944,3.3
		c0,1.31-0.356,2.528-1.079,3.654c-0.729,1.126-1.65,2.002-2.777,2.626c-0.674,0.379-2.161,0.891-4.475,1.53
		c2.768,0.334,4.699,0.778,5.789,1.326s1.962,1.405,2.617,2.569c0.655,1.163,0.979,2.465,0.979,3.896
		c0,1.506-0.337,2.875-1.003,4.099c-0.674,1.225-1.534,2.274-2.594,3.137c-1.059,0.87-2.273,1.559-3.646,2.074
		c-1.372,0.508-3.079,0.761-5.136,0.761l-7.675-0.133C8.084,31.866,6.471,31.908,4.475,31.999z M13.131,13.224l1.326,0.024
		c1.038,0,1.996-0.085,2.881-0.25c0.882-0.168,1.597-0.462,2.143-0.882c0.551-0.417,1.013-1.041,1.386-1.87
		c0.374-0.828,0.561-1.788,0.561-2.868c0-1.096-0.215-2.03-0.643-2.798c-0.429-0.767-0.98-1.316-1.665-1.644
		c-0.686-0.328-1.714-0.493-3.086-0.493c-0.989,0-1.888,0.062-2.693,0.184c-0.092,1.097-0.147,2.36-0.162,3.793l-0.043,3.539v3.265
		H13.131z M13.224,29.442c0.502,0.109,1.447,0.158,2.834,0.158c1.885,0,3.413-0.622,4.576-1.858
		c1.169-1.243,1.748-3.021,1.748-5.334c0-1.648-0.298-2.976-0.912-3.998c-0.605-1.022-1.414-1.743-2.417-2.159
		c-1.011-0.419-2.395-0.627-4.161-0.627c-0.624,0-1.209,0.03-1.761,0.092V26.13l0.046,2.719
		C13.178,28.919,13.193,29.124,13.224,29.442z"/>
</g>
</svg>
