<?xml version="1.0" encoding="utf-8"?>
<!-- Generator: Adobe Illustrator 16.0.0, SVG Export Plug-In . SVG Version: 6.00 Build 0)  -->
<!DOCTYPE svg PUBLIC "-//W3C//DTD SVG 1.0//EN" "http://www.w3.org/TR/2001/REC-SVG-20010904/DTD/svg10.dtd">
<svg version="1.0" id="Layer_1" xmlns="http://www.w3.org/2000/svg" xmlns:xlink="http://www.w3.org/1999/xlink" x="0px" y="0px"
	 width="32px" height="32px" viewBox="0 0 32 32" enable-background="new 0 0 32 32" xml:space="preserve">
<g>
	<path d="M12.49,21.895l-0.09-1.17c-0.226-2.34,0.585-4.815,2.699-7.38c1.71-2.025,2.835-3.6,2.835-5.354
		c0-1.89-1.17-3.15-3.689-3.195c-1.575,0-3.375,0.495-4.5,1.35l-1.35-3.96c1.62-1.035,4.229-1.845,7.064-1.845
		c5.58,0,8.145,3.24,8.145,6.84c0,3.24-1.979,5.49-3.915,7.694c-1.755,2.071-2.475,3.915-2.385,6.075l0.045,0.945H12.49z
		 M11.365,28.15c0-2.07,1.439-3.512,3.42-3.512c2.024,0,3.375,1.441,3.42,3.512c0,1.979-1.35,3.51-3.42,3.51
		C12.76,31.66,11.365,30.129,11.365,28.15z"/>
</g>
</svg>
