<!-- Generated by IcoMoon.io -->
<svg version="1.1" xmlns="http://www.w3.org/2000/svg" width="32" height="32" viewBox="0 0 32 32">
<title>md-help</title>
<path d="M12.49 21.895l-0.090-1.17c-0.226-2.34 0.585-4.815 2.699-7.38 1.71-2.025 2.835-3.6 2.835-5.354 0-1.89-1.17-3.15-3.689-3.195-1.575 0-3.375 0.495-4.5 1.35l-1.35-3.96c1.62-1.035 4.229-1.845 7.064-1.845 5.58 0 8.145 3.24 8.145 6.84 0 3.24-1.979 5.49-3.915 7.694-1.755 2.071-2.475 3.915-2.385 6.075l0.045 0.945h-4.859zM11.365 28.15c0-2.070 1.439-3.512 3.42-3.512 2.024 0 3.375 1.441 3.42 3.512 0 1.979-1.35 3.51-3.42 3.51-2.025 0-3.42-1.531-3.42-3.51z"></path>
</svg>
