<!-- Generated by IcoMoon.io -->
<svg version="1.1" xmlns="http://www.w3.org/2000/svg" width="32" height="32" viewBox="0 0 32 32">
<title>md-italic</title>
<path d="M8.081 32l0.136-1.337c1.644-0.062 2.586-0.158 2.828-0.292 0.164-0.091 0.316-0.255 0.453-0.498 0.256-0.486 0.735-2.538 1.438-6.165 0.702-3.634 1.57-8.608 2.612-14.928 0.529-3.199 0.793-5.22 0.793-6.064 0-0.483-0.091-0.815-0.273-0.997-0.18-0.178-0.535-0.295-1.063-0.341l-2.692-0.112 0.224-1.266 6.721 0.091c1.058 0 2.613-0.030 4.661-0.091l-0.085 1.267c-1.604 0.077-2.516 0.159-2.741 0.25-0.163 0.061-0.291 0.152-0.382 0.271-0.152 0.183-0.274 0.483-0.365 0.905-0.479 2.142-1.154 5.718-2.011 10.729l-1.86 10.43c-0.482 2.941-0.722 4.812-0.722 5.615 0 0.407 0.106 0.668 0.315 0.79 0.422 0.243 1.646 0.376 3.663 0.407l-0.158 1.336c-2.137-0.122-4.054-0.183-5.744-0.183-1.689-0.001-3.606 0.061-5.748 0.183z"></path>
</svg>
