<?xml version="1.0" encoding="utf-8"?>
<!-- Generator: Adobe Illustrator 16.0.0, SVG Export Plug-In . SVG Version: 6.00 Build 0)  -->
<!DOCTYPE svg PUBLIC "-//W3C//DTD SVG 1.1//EN" "http://www.w3.org/Graphics/SVG/1.1/DTD/svg11.dtd">
<svg version="1.1" id="Layer_1" xmlns="http://www.w3.org/2000/svg" xmlns:xlink="http://www.w3.org/1999/xlink" x="0px" y="0px"
	 width="32px" height="32px" viewBox="0 0 32 32" enable-background="new 0 0 32 32" xml:space="preserve">
<g>
	<path d="M8.081,32l0.136-1.337c1.644-0.062,2.586-0.158,2.828-0.292c0.164-0.091,0.316-0.255,0.453-0.498
		c0.256-0.486,0.735-2.538,1.438-6.165c0.702-3.634,1.57-8.608,2.612-14.928c0.529-3.199,0.793-5.22,0.793-6.064
		c0-0.483-0.091-0.815-0.273-0.997c-0.18-0.178-0.535-0.295-1.063-0.341l-2.692-0.112L12.537,0l6.721,0.091
		c1.058,0,2.613-0.03,4.661-0.091l-0.085,1.267c-1.604,0.077-2.516,0.159-2.741,0.25c-0.163,0.061-0.291,0.152-0.382,0.271
		c-0.152,0.183-0.274,0.483-0.365,0.905c-0.479,2.142-1.154,5.718-2.011,10.729l-1.86,10.43c-0.482,2.941-0.722,4.812-0.722,5.615
		c0,0.407,0.106,0.668,0.315,0.79c0.422,0.243,1.646,0.376,3.663,0.407l-0.158,1.336c-2.137-0.122-4.054-0.183-5.744-0.183
		C12.14,31.816,10.223,31.878,8.081,32z"/>
</g>
</svg>
