<!-- Generated by IcoMoon.io -->
<svg version="1.1" xmlns="http://www.w3.org/2000/svg" width="32" height="32" viewBox="0 0 32 32">
<title>md-image</title>
<path d="M30.934 3.2h-29.868c-0.587 0-1.066 0.408-1.066 0.914v23.773c0 0.502 0.479 0.914 1.066 0.914h29.867c0.59 0 1.066-0.412 1.066-0.914v-23.773c0.001-0.506-0.476-0.914-1.065-0.914zM30.4 27.199h-28.8v-22.399h28.8v22.399z"></path>
<path d="M26.52 25.066h1.918l-6.151-10.796-2.451 4.302-10.652-10.348-5.622 16.842h12.573z"></path>
<path d="M28.267 9.6c0 1.473-1.194 2.667-2.667 2.667s-2.667-1.194-2.667-2.667c0-1.473 1.194-2.667 2.667-2.667s2.667 1.194 2.667 2.667z"></path>
</svg>
