<?xml version="1.0" encoding="utf-8"?>
<!-- Generator: Adobe Illustrator 16.0.0, SVG Export Plug-In . SVG Version: 6.00 Build 0)  -->
<!DOCTYPE svg PUBLIC "-//W3C//DTD SVG 1.1//EN" "http://www.w3.org/Graphics/SVG/1.1/DTD/svg11.dtd">
<svg version="1.1" id="Layer_1" xmlns="http://www.w3.org/2000/svg" xmlns:xlink="http://www.w3.org/1999/xlink" x="0px" y="0px"
	 width="32px" height="32px" viewBox="240 240 32 32" enable-background="new 240 240 32 32" xml:space="preserve">
<path d="M253.704,259.961c-0.426,0-0.852-0.163-1.177-0.488c-3.044-3.044-3.044-7.998,0-11.042l6.144-6.144
	c1.475-1.475,3.436-2.287,5.521-2.287c2.085,0,4.046,0.812,5.521,2.287c3.045,3.044,3.045,7.998,0,11.042l-2.809,2.809
	c-0.649,0.649-1.703,0.649-2.353,0c-0.65-0.65-0.65-1.704,0-2.354l2.809-2.809c1.746-1.747,1.746-4.589,0-6.335
	c-0.847-0.846-1.972-1.312-3.168-1.312c-1.197,0-2.322,0.466-3.168,1.312l-6.144,6.144c-1.747,1.747-1.747,4.589,0,6.336
	c0.65,0.649,0.649,1.703,0,2.353C254.555,259.798,254.129,259.961,253.704,259.961L253.704,259.961z"/>
<path d="M247.808,272c-2.085,0-4.046-0.812-5.521-2.287c-3.044-3.044-3.044-7.998,0-11.042l2.808-2.809
	c0.65-0.649,1.704-0.649,2.354,0c0.65,0.65,0.65,1.704,0,2.354l-2.809,2.809c-1.747,1.747-1.747,4.589,0,6.336
	c0.846,0.846,1.971,1.312,3.168,1.312s2.322-0.466,3.168-1.312l6.144-6.144c1.747-1.747,1.747-4.589,0-6.336
	c-0.65-0.649-0.65-1.703,0-2.353c0.649-0.65,1.703-0.65,2.354,0c3.044,3.044,3.044,7.998,0,11.042l-6.145,6.144
	C251.854,271.188,249.894,272,247.808,272L247.808,272z"/>
</svg>
