<!-- Generated by IcoMoon.io -->
<svg version="1.1" xmlns="http://www.w3.org/2000/svg" width="32" height="32" viewBox="0 0 32 32">
<title>md-number</title>
<path d="M9.638 13.198h22.362v5.733h-22.362v-5.733z"></path>
<path d="M9.638 25.24h22.362v5.732h-22.362v-5.732z"></path>
<path d="M9.638 1.156h22.362v5.734h-22.362v-5.734z"></path>
<path d="M1.798 2.168h0.017v4.722h1.348v-5.961h-1.154l-1.577 0.733 0.228 1.046z"></path>
<path d="M2.017 17.764l0.549-0.453c0.861-0.772 1.587-1.571 1.587-2.569 0-1.082-0.743-1.869-2.091-1.869-0.808 0-1.504 0.274-1.953 0.614l0.395 1c0.312-0.238 0.762-0.496 1.274-0.496 0.688 0 0.979 0.386 0.979 0.872-0.018 0.697-0.65 1.367-1.953 2.532l-0.769 0.697v0.84h4.228v-1.146h-2.246v-0.022z"></path>
<path d="M2.917 27.803v-0.021c0.734-0.256 1.089-0.75 1.089-1.383 0-0.816-0.706-1.488-1.979-1.488-0.771 0-1.485 0.221-1.843 0.453l0.284 1.008c0.249-0.148 0.762-0.361 1.247-0.361 0.586 0 0.88 0.268 0.88 0.625 0 0.502-0.596 0.68-1.062 0.688h-0.543v1h0.57c0.614 0 1.201 0.268 1.201 0.855 0 0.447-0.368 0.795-1.092 0.795-0.57 0-1.137-0.24-1.385-0.367l-0.284 1.045c0.348 0.219 1 0.418 1.769 0.418 1.513 0 2.438-0.766 2.438-1.82 0.001-0.779-0.576-1.32-1.29-1.447z"></path>
</svg>
