<?xml version="1.0" encoding="utf-8"?>
<!-- Generator: Adobe Illustrator 16.0.0, SVG Export Plug-In . SVG Version: 6.00 Build 0)  -->
<!DOCTYPE svg PUBLIC "-//W3C//DTD SVG 1.1//EN" "http://www.w3.org/Graphics/SVG/1.1/DTD/svg11.dtd">
<svg version="1.1" id="Layer_1" xmlns="http://www.w3.org/2000/svg" xmlns:xlink="http://www.w3.org/1999/xlink" x="0px" y="0px"
	 width="32px" height="32px" viewBox="0 0 32 32" enable-background="new 0 0 32 32" xml:space="preserve">
<g>
	<rect x="9.638" y="13.198" width="22.362" height="5.733"/>
	<rect x="9.638" y="25.24" width="22.362" height="5.732"/>
	<rect x="9.638" y="1.156" width="22.362" height="5.734"/>
	<polygon points="1.798,2.168 1.815,2.168 1.815,6.89 3.163,6.89 3.163,0.929 2.009,0.929 0.432,1.662 0.66,2.708 	"/>
	<path d="M2.017,17.764l0.549-0.453c0.861-0.772,1.587-1.571,1.587-2.569c0-1.082-0.743-1.869-2.091-1.869
		c-0.808,0-1.504,0.274-1.953,0.614l0.395,1c0.312-0.238,0.762-0.496,1.274-0.496c0.688,0,0.979,0.386,0.979,0.872
		c-0.018,0.697-0.65,1.367-1.953,2.532l-0.769,0.697v0.84h4.228v-1.146H2.017V17.764z"/>
	<path d="M2.917,27.803v-0.021c0.734-0.256,1.089-0.75,1.089-1.383c0-0.816-0.706-1.488-1.979-1.488
		c-0.771,0-1.485,0.221-1.843,0.453l0.284,1.008c0.249-0.148,0.762-0.361,1.247-0.361c0.586,0,0.88,0.268,0.88,0.625
		c0,0.502-0.596,0.68-1.062,0.688H0.99v1h0.57c0.614,0,1.201,0.268,1.201,0.855c0,0.447-0.368,0.795-1.092,0.795
		c-0.57,0-1.137-0.24-1.385-0.367L0,30.652c0.348,0.219,1,0.418,1.769,0.418c1.513,0,2.438-0.766,2.438-1.82
		C4.208,28.471,3.631,27.93,2.917,27.803z"/>
</g>
</svg>
