<?xml version="1.0" encoding="utf-8"?>
<!-- Generator: Adobe Illustrator 16.0.0, SVG Export Plug-In . SVG Version: 6.00 Build 0)  -->
<!DOCTYPE svg PUBLIC "-//W3C//DTD SVG 1.1//EN" "http://www.w3.org/Graphics/SVG/1.1/DTD/svg11.dtd">
<svg version="1.1" id="Layer_1" xmlns="http://www.w3.org/2000/svg" xmlns:xlink="http://www.w3.org/1999/xlink" x="0px" y="0px"
	 width="32px" height="32px" viewBox="0 0 32 32" enable-background="new 0 0 32 32" xml:space="preserve">
<path d="M27.629,19.637H26.2c-0.103-0.541-0.261-1.045-0.477-1.508c-0.416-0.901-0.948-1.628-1.6-2.182
	c-0.65-0.557-1.653-1.036-3.006-1.438c-1.442-0.276-3.064-0.53-4.869-0.771c-1.805-0.238-3.103-0.492-3.894-0.768
	c-1.155-0.404-1.955-0.94-2.403-1.61c-0.448-0.67-0.671-1.616-0.671-2.843c0-2.032,0.624-3.687,1.873-4.96
	c1.249-1.276,2.918-1.916,5.007-1.916c1.616,0,3.164,0.419,4.652,1.254c0.621,0.419,1.112,0.888,1.47,1.41
	c0.088,0.199,0.152,1.412,0.193,3.633h1.471c0.047-1.529,0.112-2.687,0.2-3.472c0.082-0.785,0.229-1.635,0.428-2.543
	c-1.255-0.626-2.604-1.101-4.053-1.431C19.069,0.162,17.73,0,16.506,0c-2.033,0-3.917,0.419-5.658,1.254
	C9.11,2.093,7.799,3.263,6.912,4.77c-0.885,1.509-1.33,3.111-1.33,4.813c0,1.168,0.22,2.259,0.659,3.27
	c0.442,1.008,1.014,1.822,1.719,2.443c0.709,0.621,1.811,1.16,3.311,1.62c1.125,0.246,2.49,0.469,4.09,0.674
	c1.603,0.199,2.669,0.346,3.203,0.434c0.85,0.171,1.564,0.473,2.145,0.894c0.281,0.209,0.52,0.452,0.731,0.719H4.372v2.595h17.976
	c0.027,0.274,0.065,0.538,0.065,0.832c0,1.243-0.282,2.405-0.845,3.496c-0.562,1.09-1.453,1.969-2.684,2.638
	c-1.225,0.674-2.566,1.01-4.022,1.01c-0.997,0-2.024-0.174-3.095-0.513c-1.067-0.339-1.919-0.724-2.552-1.157
	c-0.635-0.433-1.034-0.841-1.201-1.221c-0.167-0.381-0.284-1.626-0.357-3.73h-1.47c-0.043,3.102-0.181,5.345-0.41,6.728
	C8.098,31.438,10.688,32,13.545,32c3.776,0,6.858-1.065,9.237-3.198c2.119-1.898,3.287-4.086,3.523-6.563h1.323V19.637z"/>
</svg>
