<!-- Generated by IcoMoon.io -->
<svg version="1.1" xmlns="http://www.w3.org/2000/svg" width="32" height="32" viewBox="0 0 32 32">
<title>md-strike</title>
<path d="M27.629 19.637h-1.429c-0.103-0.541-0.261-1.045-0.477-1.508-0.416-0.901-0.948-1.628-1.6-2.182-0.65-0.557-1.653-1.036-3.006-1.438-1.442-0.276-3.064-0.53-4.869-0.771-1.805-0.238-3.103-0.492-3.894-0.768-1.155-0.404-1.955-0.94-2.403-1.61s-0.671-1.616-0.671-2.843c0-2.032 0.624-3.687 1.873-4.96 1.249-1.276 2.918-1.916 5.007-1.916 1.616 0 3.164 0.419 4.652 1.254 0.621 0.419 1.112 0.888 1.47 1.41 0.088 0.199 0.152 1.412 0.193 3.633h1.471c0.047-1.529 0.112-2.687 0.2-3.472 0.082-0.785 0.229-1.635 0.428-2.543-1.255-0.626-2.604-1.101-4.053-1.431-1.452-0.33-2.791-0.492-4.015-0.492-2.033 0-3.917 0.419-5.658 1.254-1.738 0.839-3.049 2.009-3.936 3.516-0.885 1.509-1.33 3.111-1.33 4.813 0 1.168 0.22 2.259 0.659 3.27 0.442 1.008 1.014 1.822 1.719 2.443 0.709 0.621 1.811 1.16 3.311 1.62 1.125 0.246 2.49 0.469 4.090 0.674 1.603 0.199 2.669 0.346 3.203 0.434 0.85 0.171 1.564 0.473 2.145 0.894 0.281 0.209 0.52 0.452 0.731 0.719h-17.068v2.595h17.976c0.027 0.274 0.065 0.538 0.065 0.832 0 1.243-0.282 2.405-0.845 3.496s-1.453 1.969-2.684 2.638c-1.225 0.674-2.566 1.010-4.022 1.010-0.997 0-2.024-0.174-3.095-0.513-1.067-0.339-1.919-0.724-2.552-1.157-0.635-0.433-1.034-0.841-1.201-1.221-0.167-0.381-0.284-1.626-0.357-3.73h-1.47c-0.043 3.102-0.181 5.345-0.41 6.728 2.321 1.123 4.911 1.685 7.768 1.685 3.776 0 6.858-1.065 9.237-3.198 2.119-1.898 3.287-4.086 3.523-6.563h1.323v-2.602z"></path>
</svg>
