<?xml version="1.0" encoding="utf-8"?>
<!-- Generator: Adobe Illustrator 16.0.0, SVG Export Plug-In . SVG Version: 6.00 Build 0)  -->
<!DOCTYPE svg PUBLIC "-//W3C//DTD SVG 1.1//EN" "http://www.w3.org/Graphics/SVG/1.1/DTD/svg11.dtd">
<svg version="1.1" id="Layer_1" xmlns="http://www.w3.org/2000/svg" xmlns:xlink="http://www.w3.org/1999/xlink" x="0px" y="0px"
	 width="32px" height="32px" viewBox="240 240 32 32" enable-background="new 240 240 32 32" xml:space="preserve">
<g>
	<path fill="none" d="M256,244c-6.627,0-12,5.373-12,12c0,6.627,5.373,12,12,12c6.627,0,12-5.373,12-12
		C268,249.373,262.627,244,256,244z M256,264c-4.419,0-8-3.581-8-8c0-4.419,3.581-8,8-8c4.419,0,8,3.581,8,8
		C264,260.419,260.419,264,256,264z"/>
	<path d="M256,240c-8.836,0-16,7.164-16,16c0,8.837,7.164,16,16,16c8.837,0,16-7.163,16-16C272,247.164,264.837,240,256,240z
		 M256,268c-6.627,0-12-5.373-12-12c0-6.627,5.373-12,12-12c6.627,0,12,5.373,12,12C268,262.627,262.627,268,256,268z"/>
	<path d="M256,248c-4.419,0-8,3.581-8,8c0,4.419,3.581,8,8,8c4.419,0,8-3.581,8-8C264,251.581,260.419,248,256,248z"/>
</g>
</svg>
