<!-- Generated by IcoMoon.io -->
<svg version="1.1" xmlns="http://www.w3.org/2000/svg" width="32" height="32" viewBox="0 0 32 32">
<title>refresh</title>
<path d="M32.050 11.987h-12.037l4.499-4.499c-2.273-2.274-5.297-3.526-8.512-3.526s-6.238 1.252-8.512 3.526c-2.274 2.273-3.526 5.296-3.526 8.512 0 3.215 1.252 6.238 3.526 8.512 2.273 2.273 5.296 3.525 8.512 3.525 3.215 0 6.238-1.252 8.512-3.525 0.19-0.189 0.371-0.385 0.548-0.585l3.020 2.643c-2.942 3.358-7.264 5.48-12.079 5.48-8.864 0-16.050-7.186-16.050-16.050s7.186-16.050 16.050-16.050c4.432 0 8.444 1.797 11.348 4.702l4.702-4.702v12.037z"></path>
</svg>
