<?xml version="1.0" encoding="utf-8"?>
<!-- Generator: Adobe Illustrator 16.0.0, SVG Export Plug-In . SVG Version: 6.00 Build 0)  -->
<!DOCTYPE svg PUBLIC "-//W3C//DTD SVG 1.1//EN" "http://www.w3.org/Graphics/SVG/1.1/DTD/svg11.dtd">
<svg version="1.1" id="Layer_1" xmlns="http://www.w3.org/2000/svg" xmlns:xlink="http://www.w3.org/1999/xlink" x="0px" y="0px"
	 width="32px" height="32px" viewBox="240 240 32 32" enable-background="new 240 240 32 32" xml:space="preserve">
<path d="M272.05,251.987h-12.037l4.499-4.499c-2.273-2.274-5.297-3.526-8.512-3.526c-3.215,0-6.238,1.252-8.512,3.526
	c-2.274,2.273-3.526,5.296-3.526,8.512c0,3.215,1.252,6.238,3.526,8.512c2.273,2.273,5.296,3.525,8.512,3.525
	c3.215,0,6.238-1.252,8.512-3.525c0.19-0.189,0.371-0.385,0.548-0.585l3.02,2.643c-2.942,3.358-7.264,5.48-12.079,5.48
	c-8.864,0-16.05-7.186-16.05-16.05s7.186-16.05,16.05-16.05c4.432,0,8.444,1.797,11.348,4.702l4.702-4.702V251.987z"/>
</svg>
