<!-- Generated by IcoMoon.io -->
<svg version="1.1" xmlns="http://www.w3.org/2000/svg" width="16" height="16" viewBox="0 0 16 16">
<path d="M8 0c-4.411 0-8 3.589-8 8s3.589 8 8 8 8-3.589 8-8-3.589-8-8-8zM8 15.467c-4.117 0-7.467-3.35-7.467-7.467s3.35-7.467 7.467-7.467 7.467 3.35 7.467 7.467-3.35 7.467-7.467 7.467z"></path>
<path d="M8 1.6c-0.147 0-0.267 0.119-0.267 0.267v6.133h-4c-0.147 0-0.267 0.119-0.267 0.267s0.119 0.267 0.267 0.267h4.267c0.147 0 0.267-0.119 0.267-0.267v-6.4c0-0.147-0.119-0.267-0.267-0.267z"></path>
</svg>
