<!-- Generated by IcoMoon.io -->
<svg version="1.1" xmlns="http://www.w3.org/2000/svg" width="32" height="32" viewBox="0 0 32 32">
<title>time</title>
<path d="M16 0c-8.822 0-16 7.178-16 16s7.178 16 16 16 16-7.178 16-16-7.178-16-16-16zM16 30.934c-8.234 0-14.934-6.7-14.934-14.934s6.7-14.934 14.934-14.934 14.934 6.7 14.934 14.934-6.7 14.934-14.934 14.934z"></path>
<path d="M16 3.2c-0.294 0-0.534 0.238-0.534 0.534v12.266h-8c-0.294 0-0.534 0.238-0.534 0.534s0.238 0.534 0.534 0.534h8.534c0.294 0 0.534-0.238 0.534-0.534v-12.8c0-0.294-0.238-0.534-0.534-0.534z"></path>
</svg>
