<?xml version="1.0" encoding="utf-8"?>
<!-- Generator: Adobe Illustrator 16.0.0, SVG Export Plug-In . SVG Version: 6.00 Build 0)  -->
<!DOCTYPE svg PUBLIC "-//W3C//DTD SVG 1.1//EN" "http://www.w3.org/Graphics/SVG/1.1/DTD/svg11.dtd">
<svg version="1.1" id="Layer_1" xmlns="http://www.w3.org/2000/svg" xmlns:xlink="http://www.w3.org/1999/xlink" x="0px" y="0px"
	 width="32px" height="32px" viewBox="0 0 32 32" enable-background="new 0 0 32 32" xml:space="preserve">
<g>
	<path fill="none" d="M8,24h16V8H8V24z M9.858,14.604H14.5v-4.5h3v4.5h4.358v3H17.5v4.5h-3v-4.5H9.858V14.604z"/>
	<path d="M6,6v20h20V6H6z M24,24H8V8h16V24z"/>
	<polygon points="14.5,22.104 17.5,22.104 17.5,17.604 21.858,17.604 21.858,14.604 17.5,14.604 17.5,10.104 14.5,10.104 
		14.5,14.604 9.858,14.604 9.858,17.604 14.5,17.604 	"/>
</g>
</svg>
