<?xml version="1.0" encoding="iso-8859-1"?>
<!-- Generator: Adobe Illustrator 19.0.0, SVG Export Plug-In . SVG Version: 6.00 Build 0)  -->
<svg version="1.1" id="Capa_1" xmlns="http://www.w3.org/2000/svg" xmlns:xlink="http://www.w3.org/1999/xlink" x="0px" y="0px"
	 viewBox="0 0 511.999 511.999" style="enable-background:new 0 0 511.999 511.999;" xml:space="preserve">
<path style="fill:#E3AA75;" d="M413.859,374.102l-84.486-24.849c-10.235-3.01-17.263-12.403-17.263-23.071v-38.119H199.885v38.119
	c0,10.668-7.028,20.061-17.263,23.071l-84.486,24.849c-20.469,6.02-34.525,24.806-34.525,46.142v84.254h384.773v-84.254
	C448.385,398.908,434.328,380.122,413.859,374.102z"/>
<path style="fill:#E6646E;" d="M413.859,374.102l-84.486-24.849c-1.429-0.42-2.777-0.991-4.07-1.646l-69.31,12.602l-69.302-12.602
	c-1.293,0.655-2.641,1.226-4.07,1.646l-84.486,24.849c-20.469,6.02-34.525,24.806-34.525,46.142v84.254h384.773v-84.254
	C448.385,398.908,434.328,380.122,413.859,374.102z"/>
<path style="fill:#DC4655;" d="M195.691,407.754c7.26,6.223,16.521,9.65,26.075,9.65c12.249,0,23.66-5.483,31.307-15.043
	l2.925-3.656l2.926,3.657c7.647,9.56,19.058,15.043,31.307,15.043c9.555,0,18.815-3.427,26.075-9.65l39.719-34.045
	c4.196-3.597,7.338-8.335,9.088-13.702l0.072-0.221l-35.81-10.532c-1.429-0.42-2.777-0.991-4.071-1.646l-69.309,12.602
	l-69.301-12.602c-1.294,0.655-2.642,1.226-4.071,1.646l-35.808,10.532l0.071,0.221c1.751,5.369,4.893,10.107,9.087,13.702
	L195.691,407.754z"/>
<path style="fill:#D29B6E;" d="M199.885,313.968c16.841,8.996,35.939,14.176,56.113,14.176c20.173,0,39.272-5.18,56.113-14.176
	v-25.905H199.885V313.968z"/>
<path style="fill:#F5B97D;" d="M372.232,167.821h-12.024V79.644H151.789v88.177h-12.024c-11.068,0-20.04,8.972-20.04,20.04
	c0,11.068,8.972,20.04,20.04,20.04h12.429c4.106,53.795,48.958,96.193,103.804,96.193s99.698-42.398,103.804-96.193h12.429
	c11.068,0,20.04-8.973,20.04-20.04C392.272,176.793,383.3,167.821,372.232,167.821z"/>
<path style="fill:#E3AA75;" d="M151.789,79.644v88.177h-12.024c-11.068,0-20.04,8.972-20.04,20.04c0,11.068,8.972,20.04,20.04,20.04
	h12.429c4.106,53.795,48.958,96.193,103.804,96.193c5.484,0,10.83-0.534,16.083-1.351c-49.946-7.708-88.228-50.754-88.228-102.859
	v-48.095c0-17.709,14.355-32.064,32.064-32.064h96.193c8.854,0,16.032-7.178,16.032-16.032V79.644H151.789z"/>
<g>
	<path style="fill:#E6646E;" d="M255.998,360.208l-64.826-36.015c-3.989-2.216-9.022-0.66-11.063,3.422l-10.049,20.098
		c-1.316,2.632-0.672,5.822,1.562,7.737l39.719,34.045c6.884,5.901,17.288,4.923,22.953-2.157L255.998,360.208z"/>
	<path style="fill:#E6646E;" d="M255.998,360.208l64.826-36.015c3.99-2.216,9.022-0.66,11.063,3.422l10.049,20.098
		c1.316,2.632,0.672,5.822-1.562,7.737l-39.719,34.045c-6.884,5.901-17.288,4.923-22.953-2.157L255.998,360.208z"/>
</g>
<path style="fill:#FFFFFF;" d="M219.926,220.594c0,17.709,16.15,32.064,36.072,32.064s36.072-14.356,36.072-32.064H219.926z"/>
<path style="fill:#5A4650;" d="M345.813,71.628h-179.63c-24.476,0-43.236,13.729-39.648,37.941l9.221,62.213l17.998-2.223
	c8.033-0.992,14.067-7.817,14.067-15.911V95.676h176.354v57.971c0,8.094,6.034,14.919,14.067,15.911l17.998,2.223l9.221-62.213
	C389.049,85.357,370.289,71.628,345.813,71.628z"/>
<g>
	<path style="fill:#DC4655;" d="M135.756,432.353L135.756,432.353v72.145h-24.048v-48.097
		C111.708,443.12,122.475,432.353,135.756,432.353z"/>
	<path style="fill:#DC4655;" d="M376.24,432.353L376.24,432.353v72.145h24.048v-48.097
		C400.288,443.12,389.521,432.353,376.24,432.353z"/>
</g>
<g>
	<polygon style="fill:#FFE17D;" points="135.756,504.498 167.821,504.498 167.821,353.606 135.756,363.037 	"/>
	<polygon style="fill:#FFE17D;" points="376.24,504.498 344.175,504.498 344.175,353.606 376.24,363.037 	"/>
</g>
<path style="fill:#64505A;" d="M360.207,7.499c0,0-16.032,16.032-56.113,16.032h-72.145c-35.417,0-64.129,28.712-64.129,64.129
	v8.016h152.306C352.191,95.676,384.256,63.612,360.207,7.499z"/>
<path style="fill:#6E5A64;" d="M360.207,7.499c0,0-16.032,16.032-56.113,16.032h-72.145c-4.538,0-8.961,0.486-13.234,1.383
	c-1.997,5.741-3.178,11.862-3.178,18.286c0,0.087,0,0.173,0.001,0.259c0.12,11.366,10.187,20.153,21.554,20.153h128.219
	C370.395,49.261,370.034,30.428,360.207,7.499z"/>
<path d="M415.976,366.906l-65.723-19.33l-11.657-23.314c-1.883-3.766-5.27-6.64-9.292-7.884c-3.172-0.982-6.584-0.887-9.692,0.192
	v-24.915c25.013-17.396,42.617-44.741,47.019-76.252h4.459c14.617,0,27.154-10.861,28.542-24.727
	c0.778-7.771-1.764-15.531-6.975-21.288c-2.304-2.546-5.044-4.61-8.054-6.123l8.845-53.068c2.946-17.676-6.14-34.599-21.685-42.104
	c7.007-17.812,5.468-39.914-4.661-63.548c-0.98-2.288-3.031-3.94-5.475-4.41c-2.443-0.47-4.962,0.302-6.722,2.062
	c-0.139,0.138-14.841,13.835-50.81,13.835H231.95c-31.254,0-57.879,20.128-67.638,48.097h-6.736c-11.653,0-22.656,5.1-30.188,13.991
	c-7.532,8.892-10.753,20.583-8.838,32.078l8.899,53.396c-8.213,4.229-14.152,12.164-15.083,21.454
	c-0.778,7.771,1.764,15.531,6.974,21.289c5.214,5.762,12.659,9.066,20.425,9.066h5.598c4.399,31.521,22.003,58.869,47.023,76.263
	v24.904c-3.109-1.079-6.522-1.173-9.692-0.192c-4.022,1.244-7.409,4.118-9.292,7.884l-11.657,23.315l-65.723,19.33
	c-23.498,6.911-39.909,28.844-39.909,53.338v84.254c0,4.142,3.358,7.5,7.5,7.5s7.5-3.358,7.5-7.5v-84.254
	c0-17.885,11.983-33.901,29.142-38.947l28.003-8.236v131.437c0,4.142,3.358,7.5,7.5,7.5s7.5-3.358,7.5-7.5v-135.85l17.064-5.019
	v140.868c0,4.142,3.358,7.5,7.5,7.5s7.5-3.358,7.5-7.5v-136l31.14,26.691c4.312,3.696,9.66,5.668,15.261,5.668
	c0.748,0,1.501-0.035,2.256-0.106c6.409-0.603,12.152-3.702,16.173-8.729l15.846-19.809l15.848,19.809
	c4.021,5.026,9.765,8.126,16.173,8.729c0.755,0.071,1.507,0.106,2.256,0.106c5.6,0,10.95-1.973,15.261-5.668l39.201-33.601
	l24.002,7.059v135.852c0,4.142,3.358,7.5,7.5,7.5s7.5-3.358,7.5-7.5V373.06l28.005,8.237c17.158,5.046,29.142,21.062,29.142,38.947
	v84.254c0,4.142,3.358,7.5,7.5,7.5s7.5-3.358,7.5-7.5v-84.254C455.885,395.751,439.474,373.817,415.976,366.906z M378.651,107.731
	l-8.765,52.591h-9.679c-4.705,0-8.532-3.828-8.532-8.532V93.447c4.84-3.322,9.164-7.417,12.764-12.205
	C374.545,85.704,380.528,96.469,378.651,107.731z M138.832,87.815c4.676-5.521,11.508-8.687,18.743-8.687h3.271
	c-0.334,2.8-0.526,5.644-0.526,8.532v64.129c0,4.705-3.828,8.532-8.532,8.532h-9.679l-8.765-52.59
	C132.155,100.594,134.155,93.335,138.832,87.815z M159.289,199.886c0-4.142-3.358-7.5-7.5-7.5s-7.5,3.358-7.5,7.5v0.516h-4.524
	c-3.537,0-6.927-1.506-9.303-4.131c-2.407-2.66-3.533-6.115-3.171-9.729c0.63-6.292,6.611-11.22,13.617-11.22h10.88
	c12.976,0,23.532-10.557,23.532-23.532V87.66c0-31.225,25.404-56.629,56.629-56.629h72.145c26.315,0,43.24-6.642,52.528-11.913
	c6.738,20.171,5.829,38.083-2.754,51.099c-7.415,11.245-20.028,17.959-33.741,17.959H199.889c-4.142,0-7.5,3.358-7.5,7.5
	s3.358,7.5,7.5,7.5h120.238c5.707,0,11.272-0.865,16.548-2.488v51.101c0,12.976,10.557,23.532,23.532,23.532h12.024
	c3.537,0,6.928,1.505,9.303,4.13c2.407,2.659,3.533,6.115,3.171,9.73c-0.629,6.292-6.61,11.22-13.616,11.22h-3.385v-0.439
	c0-4.141-3.356-7.499-7.497-7.5c0,0-0.002,0-0.003,0c-4.14,0-7.497,3.354-7.5,7.494c-0.039,53.286-43.421,96.638-96.706,96.638
	C202.672,296.595,159.289,253.212,159.289,199.886z M255.998,311.595c17.412,0,33.906-4.012,48.613-11.153v24.179l-48.613,27.007
	l-48.613-27.007v-24.172C222.091,307.586,238.584,311.595,255.998,311.595z M228.438,382.653c-1.458,1.822-3.541,2.946-5.864,3.165
	c-2.32,0.221-4.579-0.497-6.351-2.016l-39.074-33.493l9.669-19.338c0.024-0.049,0.099-0.197,0.31-0.262
	c0.213-0.066,0.356,0.016,0.403,0.042l57.067,31.704L228.438,382.653z M295.774,383.801c-1.772,1.519-4.027,2.236-6.351,2.016
	c-2.324-0.218-4.406-1.342-5.864-3.165L267.4,362.453l57.067-31.704c0.047-0.026,0.194-0.108,0.403-0.042
	c0.211,0.065,0.285,0.214,0.31,0.262l9.669,19.338L295.774,383.801z"/>
<path d="M344.173,384.772c-4.142,0-7.5,3.358-7.5,7.5v112.227c0,4.142,3.358,7.5,7.5,7.5s7.5-3.358,7.5-7.5V392.272
	C351.673,388.13,348.315,384.772,344.173,384.772z"/>
<path d="M256.078,400.805h-0.08c-4.142,0-7.46,3.358-7.46,7.5s3.398,7.5,7.54,7.5s7.5-3.358,7.5-7.5S260.22,400.805,256.078,400.805
	z"/>
<path d="M256.078,496.998h-0.08c-4.142,0-7.46,3.358-7.46,7.5s3.398,7.5,7.54,7.5s7.5-3.358,7.5-7.5S260.22,496.998,256.078,496.998
	z"/>
<path d="M256.078,448.901h-0.08c-4.142,0-7.46,3.358-7.46,7.5s3.398,7.5,7.54,7.5s7.5-3.358,7.5-7.5S260.22,448.901,256.078,448.901
	z"/>
<path d="M215.401,184.55v-8.016c0-4.142-3.358-7.5-7.5-7.5s-7.5,3.358-7.5,7.5v8.016c0,4.142,3.358,7.5,7.5,7.5
	S215.401,188.692,215.401,184.55z"/>
<path d="M304.095,169.034c-4.142,0-7.5,3.358-7.5,7.5v8.016c0,4.142,3.358,7.5,7.5,7.5s7.5-3.358,7.5-7.5v-8.016
	C311.595,172.392,308.237,169.034,304.095,169.034z"/>
<path d="M223.417,151.789c0-4.142-3.358-7.5-7.5-7.5h-16.032c-4.142,0-7.5,3.358-7.5,7.5s3.358,7.5,7.5,7.5h16.032
	C220.06,159.289,223.417,155.931,223.417,151.789z"/>
<path d="M296.079,159.289h16.032c4.142,0,7.5-3.358,7.5-7.5s-3.358-7.5-7.5-7.5h-16.032c-4.142,0-7.5,3.358-7.5,7.5
	S291.937,159.289,296.079,159.289z"/>
<path d="M299.57,220.594c0-4.142-3.358-7.5-7.5-7.5h-72.145c-4.142,0-7.5,3.358-7.5,7.5c0,21.816,19.546,39.564,43.572,39.564
	S299.57,242.41,299.57,220.594z M228.787,228.094h54.422c-3.696,9.889-14.497,17.064-27.211,17.064S232.483,237.983,228.787,228.094
	z"/>
<g>
</g>
<g>
</g>
<g>
</g>
<g>
</g>
<g>
</g>
<g>
</g>
<g>
</g>
<g>
</g>
<g>
</g>
<g>
</g>
<g>
</g>
<g>
</g>
<g>
</g>
<g>
</g>
<g>
</g>
</svg>
