<?xml version="1.0" encoding="iso-8859-1"?>
<!-- Generator: Adobe Illustrator 19.0.0, SVG Export Plug-In . SVG Version: 6.00 Build 0)  -->
<svg version="1.1" id="Capa_1" xmlns="http://www.w3.org/2000/svg" xmlns:xlink="http://www.w3.org/1999/xlink" x="0px" y="0px"
	 viewBox="0 0 512 512" style="enable-background:new 0 0 512 512;" xml:space="preserve">
<path style="fill:#5A4650;" d="M151.789,392.274c0,0-56.113-105.789-56.113-214.425l0,0c0-60.558,32.065-114.237,88.178-146.301
	h48.097v360.726H151.789z"/>
<path style="fill:#64505A;" d="M360.209,384.258c0,0,64.129-104.21,64.129-208.419l0,0C424.338,82.868,348.97,7.5,255.999,7.5
	h-16.032c-40.081,0-72.145,25.123-72.145,56.113l0,0c0,17.709,14.356,32.065,32.065,32.065h32.065v288.581L360.209,384.258
	L360.209,384.258z"/>
<g>
	<path style="fill:#FFE17D;" d="M159.806,256c0,8.854-7.178,16.032-16.032,16.032s-16.032-7.178-16.032-16.032
		c0-16.032,16.032-48.097,16.032-48.097S159.806,239.968,159.806,256z"/>
	<path style="fill:#FFE17D;" d="M384.257,256c0,8.854-7.178,16.032-16.032,16.032s-16.032-7.178-16.032-16.032
		c0-16.032,16.032-48.097,16.032-48.097S384.257,239.968,384.257,256z"/>
</g>
<path style="fill:#E3AA75;" d="M408.281,396.981l-82.792-29.221c-12.82-4.525-21.393-16.642-21.393-30.237V296.08h-96.194v41.443
	c0,13.595-8.573,25.712-21.393,30.236l-82.793,29.221c-19.229,6.787-32.089,24.962-32.089,45.354V504.5h368.742v-62.164
	C440.37,421.944,427.51,403.768,408.281,396.981z"/>
<path style="fill:#D29B6E;" d="M255.999,336.161c17.034,0,33.296-3.712,48.097-10.257V296.08h-96.194v29.824
	C222.703,332.449,238.965,336.161,255.999,336.161z"/>
<path style="fill:#F5B97D;" d="M372.233,175.839h-12.024v-32.065c0-26.563-21.534-48.097-48.097-48.097H199.886
	c-26.563,0-48.097,21.534-48.097,48.097v32.065h-12.024c-11.068,0-20.04,8.972-20.04,20.04s8.972,20.04,20.04,20.04h12.429
	c4.106,53.795,48.958,96.194,103.805,96.194s99.699-42.398,103.805-96.194h12.429c11.068,0,20.04-8.973,20.04-20.04
	C392.273,184.811,383.301,175.839,372.233,175.839z"/>
<path style="fill:#FF8250;" d="M408.28,396.981l-18.797-6.634c-30.77,40.095-79.038,66.056-133.485,66.056
	s-102.715-25.961-133.485-66.057l-18.797,6.635c-19.229,6.787-32.088,24.962-32.088,45.354V504.5H440.37v-62.164
	C440.37,421.944,427.51,403.768,408.28,396.981z"/>
<path style="fill:#E3AA75;" d="M151.789,143.774v32.065h-10.881c-10.483,0-20.035,7.542-21.08,17.973
	c-1.201,11.996,8.187,22.108,19.936,22.108h12.429c4.106,53.795,48.957,96.194,103.805,96.194c5.483,0,10.83-0.534,16.083-1.351
	c-49.946-7.708-88.228-50.754-88.228-102.859V151.79c0-17.709,14.356-32.065,32.065-32.065h88.177
	c8.854,0,16.032-7.178,16.032-16.032v-8.016H199.886C173.323,95.677,151.789,117.211,151.789,143.774z"/>
<path style="fill:#DC7346;" d="M389.484,390.347c-30.771,40.095-79.038,66.056-133.485,66.056s-102.715-25.961-133.485-66.057
	l-18.798,6.634c-1.665,0.588-3.214,1.367-4.779,2.12c34.847,49.202,92.183,81.351,157.062,81.351s122.215-32.149,157.062-81.35
	c-1.566-0.753-3.116-1.533-4.781-2.12L389.484,390.347z"/>
<path d="M207.902,177.052c-4.142,0-7.5,3.358-7.5,7.5v8.016c0,4.142,3.358,7.5,7.5,7.5s7.5-3.358,7.5-7.5v-8.016
	C215.402,180.41,212.044,177.052,207.902,177.052z"/>
<path d="M304.096,177.052c-4.142,0-7.5,3.358-7.5,7.5v8.016c0,4.142,3.358,7.5,7.5,7.5s7.5-3.358,7.5-7.5v-8.016
	C311.596,180.41,308.238,177.052,304.096,177.052z"/>
<path d="M410.777,389.909l-41.142-14.521c5.541-8.978,17.477-29.437,29.522-57.292c27.011-62.462,32.681-111.836,32.681-142.257
	C431.838,78.881,352.957,0,255.999,0h-16.032c-21.021,0-40.807,6.399-55.714,18.02c-6.575,5.126-11.879,11.012-15.815,17.419
	c-25.203,14.87-45.142,35.521-58.549,58.708c-14.407,24.915-21.712,53.076-21.712,83.703c0,57.248,15.454,110.227,28.419,144.589
	c9.385,24.873,18.693,43.589,24.014,53.568l-39.388,13.901c-22.187,7.83-37.093,28.899-37.093,52.427V504.5
	c0,4.142,3.358,7.5,7.5,7.5s7.5-3.358,7.5-7.5v-62.165c0-17.18,10.885-32.564,27.085-38.282l12.237-4.319
	c28.714,39.69,80.937,64.169,137.549,64.169c25.526,0,50.915-5.042,73.422-14.579c3.814-1.617,5.595-6.019,3.979-9.832
	c-1.617-3.814-6.018-5.596-9.832-3.979c-20.671,8.76-44.037,13.39-67.569,13.39c-50.122,0-96.282-20.655-122.72-54.403
	l55.726-19.668c15.789-5.573,26.397-20.566,26.397-37.309v-25.548c12.589,4.928,26.282,7.638,40.597,7.638s28.007-2.71,40.597-7.638
	v25.548c0,16.743,10.608,31.736,26.397,37.309l55.723,19.667c-7.693,9.817-17.148,18.63-28.209,26.272
	c-3.408,2.354-4.262,7.025-1.907,10.434c1.456,2.107,3.796,3.237,6.177,3.237c1.47,0,2.955-0.431,4.256-1.33
	c13.79-9.527,25.372-20.742,34.51-33.38l12.242,4.321c16.201,5.718,27.085,21.102,27.085,38.282V504.5c0,4.142,3.358,7.5,7.5,7.5
	s7.5-3.358,7.5-7.5v-62.165C447.87,418.808,432.963,397.739,410.777,389.909z M200.402,337.523c0,10.396-6.586,19.705-16.389,23.165
	l-29.069,10.26c-11.525-21.373-51.768-102.506-51.768-193.098c0-27.956,6.627-53.591,19.697-76.194
	c9.56-16.533,22.205-30.86,37.685-42.777c-0.141,1.568-0.237,3.144-0.237,4.734c0,12.302,5.644,23.308,14.478,30.57
	c-18.083,9.185-30.51,27.958-30.51,49.591v24.048c0,0.285-0.231,0.516-0.516,0.516h-4.008c-15.186,0-27.54,12.354-27.54,27.54
	c0,12.254,8.046,22.66,19.131,26.223c-4.993,9.186-11.115,22.725-11.115,33.898c0,12.976,10.557,23.532,23.532,23.532
	c7.899,0,14.896-3.916,19.166-9.904c9.588,14.408,22.425,26.477,37.463,35.141L200.402,337.523L200.402,337.523z M135.241,256
	c0-7.165,4.329-17.273,8.532-25.263c4.204,7.99,8.532,18.098,8.532,25.263c0,4.705-3.828,8.532-8.532,8.532
	C139.069,264.532,135.241,260.705,135.241,256z M327.985,360.688c-9.803-3.46-16.389-12.769-16.389-23.165V304.77
	c15.038-8.665,27.875-20.734,37.463-35.142c4.27,5.988,11.267,9.904,19.166,9.904c12.976,0,23.532-10.557,23.532-23.532
	c0-11.173-6.122-24.712-11.115-33.898c11.085-3.563,19.131-13.969,19.131-26.223c0-15.186-12.354-27.54-27.541-27.54h-4.008
	c-0.285,0-0.516-0.231-0.516-0.516v-24.048c0-30.656-24.941-55.597-55.597-55.597h-8.015c-4.142,0-7.5,3.358-7.5,7.5
	s3.358,7.5,7.5,7.5h8.015c22.385,0,40.597,18.212,40.597,40.597v24.048c0,8.556,6.96,15.516,15.516,15.516h4.008
	c6.915,0,12.541,5.625,12.541,12.54s-5.625,12.541-12.541,12.541h-4.53c0.001-0.172,0.007-0.344,0.007-0.516
	c0-4.142-3.358-7.5-7.5-7.5s-7.5,3.358-7.5,7.5c0,53.326-43.384,96.709-96.71,96.709s-96.709-43.384-96.709-96.709
	c0-4.142-3.358-7.5-7.5-7.5s-7.5,3.358-7.5,7.5c0,0.173,0.006,0.344,0.007,0.516h-4.531c-6.915,0-12.54-5.625-12.54-12.541
	c0-6.915,5.625-12.54,12.54-12.54h4.008c8.556,0,15.516-6.96,15.516-15.516v-24.048c0-22.385,18.211-40.597,40.597-40.597h72.147
	c4.142,0,7.5-3.358,7.5-7.5s-3.358-7.5-7.5-7.5h-72.147c-13.545,0-24.564-11.02-24.564-24.564c0-26.805,29-48.613,64.645-48.613
	h16.031c88.687,0,160.839,72.152,160.839,160.839c0,92.977-53.124,180.849-61.706,194.431L327.985,360.688z M359.693,256
	c0-7.165,4.329-17.273,8.532-25.263c4.204,7.99,8.532,18.098,8.532,25.263c0,4.705-3.828,8.532-8.532,8.532
	S359.693,260.705,359.693,256z"/>
<path d="M274.78,242.645c-2.737,2.701-9.298,5.855-18.781,5.855s-16.043-3.154-18.781-5.855c-2.95-2.91-7.698-2.877-10.606,0.071
	c-2.909,2.948-2.877,7.697,0.071,10.606c6.459,6.373,17.418,10.177,29.316,10.177c11.898,0,22.857-3.805,29.316-10.177
	c2.949-2.909,2.98-7.658,0.071-10.606C282.476,239.768,277.728,239.736,274.78,242.645z"/>
<path d="M206.194,149.021l-9.519,4.509c-3.743,1.773-5.34,6.245-3.567,9.989c1.282,2.707,3.975,4.291,6.783,4.291
	c1.076,0,2.169-0.233,3.206-0.724l9.519-4.509c3.743-1.773,5.34-6.245,3.567-9.989C214.41,148.844,209.939,147.248,206.194,149.021z
	"/>
<path d="M299.382,162.576l9.519,4.509c1.037,0.491,2.13,0.724,3.206,0.724c2.808,0,5.501-1.585,6.783-4.291
	c1.773-3.744,0.176-8.216-3.567-9.989l-9.519-4.509c-3.743-1.772-8.215-0.177-9.989,3.567S295.639,160.803,299.382,162.576z"/>
<g>
</g>
<g>
</g>
<g>
</g>
<g>
</g>
<g>
</g>
<g>
</g>
<g>
</g>
<g>
</g>
<g>
</g>
<g>
</g>
<g>
</g>
<g>
</g>
<g>
</g>
<g>
</g>
<g>
</g>
</svg>
