<?xml version="1.0" encoding="iso-8859-1"?>
<!-- Generator: Adobe Illustrator 19.0.0, SVG Export Plug-In . SVG Version: 6.00 Build 0)  -->
<svg version="1.1" id="Layer_1" xmlns="http://www.w3.org/2000/svg" xmlns:xlink="http://www.w3.org/1999/xlink" x="0px" y="0px"
	 viewBox="0 0 481.882 481.882" style="enable-background:new 0 0 481.882 481.882;" xml:space="preserve">
<path style="fill:#3A556A;" d="M470.438,0.301H11.445C4.819,0.301,0,5.722,0,11.746v68.668h481.882V11.746
	C481.882,5.722,476.461,0.301,470.438,0.301z"/>
<rect x="18.673" y="27.407" style="fill:#EBF0F3;" width="301.779" height="26.504"/>
<circle style="fill:#FCD462;" cx="358.4" cy="40.659" r="13.252"/>
<circle style="fill:#44C4A1;" cx="405.384" cy="40.659" r="13.252"/>
<circle style="fill:#E56353;" cx="452.367" cy="40.659" r="13.252"/>
<path style="fill:#EBF0F3;" d="M481.882,80.414v389.722c0,6.626-5.421,11.445-11.445,11.445H11.445
	C4.819,481.581,0,476.16,0,470.136V80.414H481.882z"/>
<path style="fill:#FFFFFF;" d="M481.882,80.414v377.675c0,6.626-5.421,11.445-11.445,11.445H11.445
	C4.819,469.534,0,464.113,0,458.089V80.414H481.882z"/>
<g>
	<path style="fill:#64798A;" d="M133.12,215.944v-22.287h19.275v22.287h14.456v18.673h-14.456v30.72H133.12v-30.72H81.318v-18.071
		l44.574-72.885h21.685l-43.972,72.282L133.12,215.944L133.12,215.944z"/>
	<path style="fill:#64798A;" d="M196.367,249.675c-8.433-11.445-12.047-26.504-12.047-45.779s4.216-34.334,12.047-45.779
		c8.433-11.445,20.48-16.866,37.346-16.866c16.264,0,28.913,5.421,37.346,16.866s12.047,26.504,12.047,45.779
		s-4.216,34.334-12.047,45.779c-8.433,11.445-20.48,16.866-37.346,16.866S204.198,261.12,196.367,249.675z M210.824,171.369
		c-4.819,8.433-7.228,19.275-7.228,32.527s2.409,24.696,7.228,32.527c4.819,8.433,12.047,12.649,22.287,12.649
		s17.468-4.216,22.287-12.649c4.819-8.433,7.228-19.275,7.228-33.129c0-13.854-2.409-24.696-7.228-33.129
		c-4.819-8.433-12.047-12.649-22.287-12.649C222.871,158.72,215.642,162.936,210.824,171.369z"/>
	<path style="fill:#64798A;" d="M351.172,215.944v-22.287h19.275v22.287h14.456v18.673h-14.456v30.72h-19.275v-30.72h-51.802
		v-18.071l44.574-72.885h22.287l-43.972,72.282L351.172,215.944L351.172,215.944z"/>
</g>
<g>
	<path style="fill:#E56353;" d="M135.529,319.548c2.409,2.409,4.216,5.421,4.216,10.24s-1.205,7.831-4.216,10.24
		c-3.012,2.409-6.626,3.012-12.649,3.012h-6.626v11.445h-6.626v-38.551h13.252C128.904,315.934,133.12,317.139,135.529,319.548z
		 M130.711,335.209c1.205-1.205,1.807-3.614,1.807-6.024s-0.602-4.819-2.409-5.421c-1.807-1.205-4.216-1.807-7.831-1.807h-6.626
		v15.661h7.831C127.096,337.016,129.506,336.414,130.711,335.209z"/>
	<path style="fill:#E56353;" d="M169.261,354.485h-5.421v-3.614c-2.409,3.012-5.421,4.216-9.638,4.216
		c-3.012,0-5.421-0.602-7.831-2.409c-1.807-1.807-3.012-4.216-3.012-6.626c0-3.012,1.205-4.819,3.012-6.626
		c2.409-1.205,4.819-2.409,8.433-2.409h7.831v-1.205c0-3.614-2.409-6.024-6.626-6.024c-2.409,0-5.421,1.205-8.433,3.012
		l-3.012-3.614c3.614-3.012,7.831-4.216,12.047-4.216c3.614,0,6.024,0.602,8.433,2.409s3.012,4.216,3.012,8.433v18.673H169.261z
		 M163.238,343.642v-2.409h-6.626c-4.216,0-6.626,1.205-6.626,4.216c0,1.205,0.602,2.409,1.807,3.012
		c1.205,0.602,2.409,1.205,4.819,1.205c1.807,0,3.614-0.602,5.421-1.807C162.635,346.654,163.238,345.449,163.238,343.642z"/>
	<path style="fill:#E56353;" d="M204.8,324.969v25.299c0,5.421-1.205,9.035-4.216,11.445c-3.012,2.409-6.626,3.614-10.842,3.614
		s-8.433-1.205-12.047-4.216l3.012-4.819c3.012,2.409,6.024,3.012,8.433,3.012c3.012,0,5.421-0.602,6.626-2.409
		c1.807-1.205,2.409-3.614,2.409-7.228v-3.614c-1.205,1.807-2.409,3.012-4.216,4.216s-3.614,1.807-6.024,1.807
		c-3.614,0-7.228-1.205-9.638-4.216c-2.409-2.409-3.614-6.024-3.614-10.24c0-4.216,1.205-7.228,3.614-10.24
		c2.409-2.409,5.421-4.216,9.638-4.216c3.614,0,7.228,1.807,9.638,4.819v-4.216h7.228V324.969z M181.911,338.824
		c0,2.409,0.602,4.216,2.409,6.024c1.205,1.807,3.614,2.409,6.024,2.409s4.819-0.602,6.024-2.409
		c1.807-1.807,2.409-3.614,2.409-6.024s-0.602-4.819-2.409-6.626c-1.807-1.807-3.614-2.409-6.024-2.409s-4.216,0.602-6.024,2.409
		C183.115,334.005,181.911,336.414,181.911,338.824z"/>
	<path style="fill:#E56353;" d="M240.941,342.438h-22.889c0,2.409,1.205,3.614,3.012,5.421c1.807,1.205,3.614,1.807,6.024,1.807
		c3.614,0,6.626-1.205,8.433-3.614l3.614,3.614c-3.012,3.012-7.228,4.819-12.047,4.819c-4.216,0-7.831-1.205-10.24-4.216
		c-3.012-3.012-4.216-6.626-4.216-10.842c0-4.819,1.205-8.433,4.216-10.842c3.012-2.409,6.626-4.216,10.24-4.216
		c4.216,0,7.228,1.205,10.24,3.614c3.012,2.409,4.216,5.421,4.216,9.638v4.819H240.941z M218.052,337.619h16.866
		c0-2.409-0.602-4.216-2.409-5.421c-1.807-1.205-3.614-1.807-5.421-1.807c-1.807,0-4.216,0.602-6.024,1.807
		C219.256,333.402,218.052,335.209,218.052,337.619z"/>
	<path style="fill:#E56353;" d="M292.141,315.934h6.626v38.551h-6.626l-21.685-27.708v27.708h-6.626v-38.551h6.626l22.287,28.913
		v-28.913H292.141z"/>
	<path style="fill:#E56353;" d="M333.101,350.268c-3.012,3.012-6.626,4.216-10.842,4.216c-4.216,0-7.831-1.205-10.842-4.216
		c-3.012-3.012-4.216-6.626-4.216-10.842c0-4.216,1.205-7.831,4.216-10.842c3.012-3.012,6.626-4.216,10.842-4.216
		c4.216,0,7.831,1.205,10.842,4.216c3.012,3.012,4.216,6.626,4.216,10.842C337.318,344.245,336.113,347.859,333.101,350.268z
		 M315.633,346.654c1.807,1.807,4.216,2.409,6.626,2.409c2.409,0,4.819-0.602,6.626-2.409c1.807-1.807,2.409-4.216,2.409-6.626
		c0-3.012-0.602-4.819-2.409-6.626s-4.216-2.409-6.626-2.409c-2.409,0-4.819,0.602-6.626,2.409
		c-1.807,1.807-2.409,4.216-2.409,6.626C312.621,342.438,313.826,344.847,315.633,346.654z"/>
	<path style="fill:#E56353;" d="M351.774,330.391v15.059c0,1.205,0.602,2.409,1.205,3.614c0.602,0.602,1.807,1.205,3.012,1.205
		s2.409-0.602,3.614-1.807l2.409,4.216c-2.409,1.807-4.819,3.012-7.228,3.012s-4.819-1.205-6.626-3.012
		c-1.807-1.807-3.012-4.216-3.012-7.228v-14.456h-3.614v-4.819h3.614v-9.035h6.024v9.035h7.831v4.819h-7.228V330.391z"/>
	<path style="fill:#E56353;" d="M165.045,388.216v10.24h16.866v6.024h-16.866v15.661h-6.626v-38.551h25.299v6.024h-18.673V388.216z"
		/>
	<path style="fill:#E56353;" d="M214.438,416.527c-3.012,3.012-6.626,4.216-10.842,4.216s-7.831-1.205-10.842-4.216
		c-3.012-3.012-4.216-6.626-4.216-10.842c0-4.216,1.205-7.831,4.216-10.842c3.012-3.012,6.626-4.216,10.842-4.216
		s7.831,1.205,10.842,4.216c3.012,3.012,4.216,6.626,4.216,10.842C218.654,409.901,216.847,413.515,214.438,416.527z
		 M196.367,412.311c1.807,1.807,4.216,2.409,6.626,2.409c2.409,0,4.819-0.602,6.626-2.409c1.807-1.807,2.409-4.216,2.409-6.626
		c0-3.012-0.602-4.819-2.409-6.626c-1.807-1.807-4.216-2.409-6.626-2.409s-4.819,0.602-6.626,2.409
		c-1.807,1.807-2.409,4.216-2.409,6.626C193.958,408.697,194.56,411.106,196.367,412.311z"/>
	<path style="fill:#E56353;" d="M245.76,406.889v-15.661h6.024v28.913h-6.024v-5.421c-1.205,1.807-2.409,3.012-4.216,4.216
		c-1.807,1.205-3.614,1.807-5.421,1.807c-3.012,0-6.024-1.205-7.831-3.012c-1.807-1.807-3.012-4.819-3.012-8.433v-18.071h6.024
		v15.661c0,5.421,2.409,7.831,6.626,7.831c2.409,0,4.216-0.602,5.421-2.409C245.158,411.708,245.76,409.901,245.76,406.889z"/>
	<path style="fill:#E56353;" d="M266.842,404.48v15.661h-6.024v-28.913h6.024v5.421c1.205-1.807,2.409-3.012,4.216-4.216
		c1.807-1.205,3.614-1.807,5.421-1.807c3.012,0,6.024,1.205,7.831,3.012c1.807,1.807,3.012,4.819,3.012,8.433v18.071h-6.024v-16.264
		c0-5.421-2.409-7.831-6.626-7.831c-2.409,0-4.216,0.602-5.421,2.409C268.047,399.661,266.842,402.071,266.842,404.48z"/>
	<path style="fill:#E56353;" d="M298.767,416.527c-3.012-3.012-4.216-6.626-4.216-10.842c0-4.819,1.205-8.433,4.216-10.842
		c3.012-2.409,6.024-4.216,10.24-4.216c3.614,0,7.228,1.807,9.638,4.819v-16.264h6.024v40.96h-6.024v-4.216
		c-2.409,3.012-5.421,4.819-9.638,4.819C304.791,420.744,301.176,419.539,298.767,416.527z M300.574,405.685
		c0,3.012,0.602,4.819,2.409,6.626c1.807,1.807,3.614,2.409,6.024,2.409s4.216-0.602,6.024-2.409
		c1.807-1.807,2.409-4.216,2.409-6.626c0-3.012-0.602-4.819-2.409-7.228c-1.807-1.807-3.614-3.012-6.024-3.012
		s-4.819,1.205-6.024,3.012C301.779,400.866,300.574,403.275,300.574,405.685z"/>
</g>
<g>
</g>
<g>
</g>
<g>
</g>
<g>
</g>
<g>
</g>
<g>
</g>
<g>
</g>
<g>
</g>
<g>
</g>
<g>
</g>
<g>
</g>
<g>
</g>
<g>
</g>
<g>
</g>
<g>
</g>
</svg>
