<?xml version="1.0" encoding="utf-8"?>
<!-- Generator: Adobe Illustrator 16.0.0, SVG Export Plug-In . SVG Version: 6.00 Build 0)  -->
<!DOCTYPE svg PUBLIC "-//W3C//DTD SVG 1.1//EN" "http://www.w3.org/Graphics/SVG/1.1/DTD/svg11.dtd">
<svg version="1.1" id="Capa_1" xmlns="http://www.w3.org/2000/svg" xmlns:xlink="http://www.w3.org/1999/xlink" x="0px" y="0px"
	 width="22px" height="22px" viewBox="0 0 22 22" enable-background="new 0 0 22 22" xml:space="preserve">
<rect fill="#ECF0F1" width="22" height="22"/>
<rect fill="#546A79" width="22" height="4.552"/>
<circle fill="#ED7161" cx="2.276" cy="2.276" r="1.138"/>
<circle fill="#F0C419" cx="5.689" cy="2.276" r="1.138"/>
<circle fill="#4FBA6F" cx="9.104" cy="2.276" r="1.138"/>
<rect x="1.896" y="8.448" fill="#FFFFFF" width="18.207" height="9.104"/>
<rect x="8.345" y="14.518" fill="#4FBA6F" width="5.311" height="1.518"/>
<path fill="#BDC3C7" d="M15.362,12.241H6.638c-0.209,0-0.379-0.17-0.379-0.379c0-0.21,0.17-0.379,0.379-0.379h8.725
	c0.209,0,0.379,0.169,0.379,0.379C15.741,12.071,15.571,12.241,15.362,12.241z"/>
<path fill="#BDC3C7" d="M13.845,10.724H8.155c-0.209,0-0.379-0.17-0.379-0.379s0.17-0.379,0.379-0.379h5.689
	c0.21,0,0.38,0.17,0.38,0.379S14.055,10.724,13.845,10.724z"/>
</svg>
