<?xml version="1.0" encoding="utf-8"?>
<!-- Generator: Adobe Illustrator 16.0.0, SVG Export Plug-In . SVG Version: 6.00 Build 0)  -->
<!DOCTYPE svg PUBLIC "-//W3C//DTD SVG 1.1//EN" "http://www.w3.org/Graphics/SVG/1.1/DTD/svg11.dtd">
<svg version="1.1" id="Capa_1" xmlns="http://www.w3.org/2000/svg" xmlns:xlink="http://www.w3.org/1999/xlink" x="0px" y="0px"
	 width="22px" height="22px" viewBox="0 0 22 22" enable-background="new 0 0 22 22" xml:space="preserve">
<rect fill="#ECF0F1" width="22" height="22"/>
<rect fill="#546A79" width="22" height="4.552"/>
<circle fill="#ED7161" cx="2.276" cy="2.276" r="1.138"/>
<circle fill="#F0C419" cx="5.689" cy="2.276" r="1.138"/>
<circle fill="#4FBA6F" cx="9.104" cy="2.276" r="1.138"/>
<path fill="#BDC3C7" d="M2.284,8.872h3.793c0.209,0,0.379-0.17,0.379-0.379s-0.17-0.379-0.379-0.379H2.284
	c-0.209,0-0.379,0.17-0.379,0.379S2.075,8.872,2.284,8.872z"/>
<path fill="#BDC3C7" d="M7.827,9.776c-0.065,0-0.131-0.025-0.182-0.075c-0.101-0.101-0.101-0.262,0-0.363l0.846-0.846L7.646,7.648
	c-0.101-0.101-0.101-0.263,0-0.364c0.101-0.1,0.263-0.1,0.363,0l1.208,1.208L8.009,9.702C7.958,9.751,7.893,9.776,7.827,9.776z"/>
<path fill="#BDC3C7" d="M10.62,8.872h3.793c0.209,0,0.379-0.17,0.379-0.379s-0.17-0.379-0.379-0.379H10.62
	c-0.209,0-0.379,0.17-0.379,0.379S10.411,8.872,10.62,8.872z"/>
<path fill="#BDC3C7" d="M16.163,9.776c-0.065,0-0.132-0.024-0.182-0.075c-0.101-0.1-0.101-0.262,0-0.362l0.847-0.846l-0.847-0.845
	c-0.101-0.101-0.101-0.263,0-0.364c0.101-0.1,0.263-0.1,0.363,0l1.208,1.208l-1.208,1.208C16.295,9.752,16.229,9.776,16.163,9.776z"
	/>
</svg>
