<?xml version="1.0" encoding="iso-8859-1"?>
<!-- Generator: Adobe Illustrator 19.0.0, SVG Export Plug-In . SVG Version: 6.00 Build 0)  -->
<svg version="1.1" id="Capa_1" xmlns="http://www.w3.org/2000/svg" xmlns:xlink="http://www.w3.org/1999/xlink" x="0px" y="0px"
	 viewBox="0 0 58 58" style="enable-background:new 0 0 58 58;" xml:space="preserve">
<rect style="fill:#ECF0F1;" width="58" height="58"/>
<rect style="fill:#546A79;" width="58" height="12"/>
<circle style="fill:#ED7161;" cx="6" cy="6" r="3"/>
<circle style="fill:#F0C419;" cx="15" cy="6" r="3"/>
<circle style="fill:#4FBA6F;" cx="24" cy="6" r="3"/>
<rect x="5" y="17" style="fill:#FFFFFF;" width="48" height="36"/>
<g>
	<path style="fill:#BDC3C7;" d="M24,26h10c0.552,0,1-0.448,1-1s-0.448-1-1-1H24c-0.552,0-1,0.448-1,1S23.448,26,24,26z"/>
	<path style="fill:#BDC3C7;" d="M19,31h20c0.552,0,1-0.448,1-1s-0.448-1-1-1H19c-0.552,0-1,0.448-1,1S18.448,31,19,31z"/>
	<path style="fill:#BDC3C7;" d="M39,34H19c-0.552,0-1,0.448-1,1s0.448,1,1,1h20c0.552,0,1-0.448,1-1S39.552,34,39,34z"/>
	<path style="fill:#BDC3C7;" d="M39,39H19c-0.552,0-1,0.448-1,1s0.448,1,1,1h20c0.552,0,1-0.448,1-1S39.552,39,39,39z"/>
	<path style="fill:#BDC3C7;" d="M39,44H19c-0.552,0-1,0.448-1,1s0.448,1,1,1h20c0.552,0,1-0.448,1-1S39.552,44,39,44z"/>
</g>
<path style="fill:#BDC3C7;" d="M46,40c-0.256,0-0.512-0.098-0.707-0.293c-0.391-0.391-0.391-1.023,0-1.414L48.586,35l-3.293-3.293
	c-0.391-0.391-0.391-1.023,0-1.414s1.023-0.391,1.414,0L51.414,35l-4.707,4.707C46.512,39.902,46.256,40,46,40z"/>
<path style="fill:#BDC3C7;" d="M12,40c-0.256,0-0.512-0.098-0.707-0.293L6.586,35l4.707-4.707c0.391-0.391,1.023-0.391,1.414,0
	s0.391,1.023,0,1.414L9.414,35l3.293,3.293c0.391,0.391,0.391,1.023,0,1.414C12.512,39.902,12.256,40,12,40z"/>
<g>
</g>
<g>
</g>
<g>
</g>
<g>
</g>
<g>
</g>
<g>
</g>
<g>
</g>
<g>
</g>
<g>
</g>
<g>
</g>
<g>
</g>
<g>
</g>
<g>
</g>
<g>
</g>
<g>
</g>
</svg>
