<?xml version="1.0" encoding="iso-8859-1"?>
<!-- Generator: Adobe Illustrator 19.0.0, SVG Export Plug-In . SVG Version: 6.00 Build 0)  -->
<svg version="1.1" id="Capa_1" xmlns="http://www.w3.org/2000/svg" xmlns:xlink="http://www.w3.org/1999/xlink" x="0px" y="0px"
	 viewBox="0 0 58 58" style="enable-background:new 0 0 58 58;" xml:space="preserve">
<rect style="fill:#8697CB;" width="58" height="58"/>
<rect style="fill:#546A79;" width="58" height="12"/>
<circle style="fill:#ED7161;" cx="6" cy="6" r="3"/>
<circle style="fill:#F0C419;" cx="15" cy="6" r="3"/>
<circle style="fill:#4FBA6F;" cx="24" cy="6" r="3"/>
<rect x="8" y="19" style="fill:#FFFFFF;" width="42" height="30"/>
<rect x="8" y="19" style="fill:#556080;" width="42" height="10"/>
<rect x="12" y="23" style="fill:#FFFFFF;" width="8" height="2"/>
<path style="fill:#FFFFFF;" d="M42,27c-0.256,0-0.512-0.098-0.707-0.293c-0.391-0.391-0.391-1.023,0-1.414l4-4
	c0.391-0.391,1.023-0.391,1.414,0s0.391,1.023,0,1.414l-4,4C42.512,26.902,42.256,27,42,27z"/>
<path style="fill:#FFFFFF;" d="M46,27c-0.256,0-0.512-0.098-0.707-0.293l-4-4c-0.391-0.391-0.391-1.023,0-1.414s1.023-0.391,1.414,0
	l4,4c0.391,0.391,0.391,1.023,0,1.414C46.512,26.902,46.256,27,46,27z"/>
<g>
	<rect x="14" y="34" style="fill:#BDC3C7;" width="15" height="2"/>
	<rect x="14" y="38" style="fill:#BDC3C7;" width="26" height="2"/>
	<rect x="14" y="42" style="fill:#BDC3C7;" width="26" height="2"/>
</g>
<g>
</g>
<g>
</g>
<g>
</g>
<g>
</g>
<g>
</g>
<g>
</g>
<g>
</g>
<g>
</g>
<g>
</g>
<g>
</g>
<g>
</g>
<g>
</g>
<g>
</g>
<g>
</g>
<g>
</g>
</svg>
