<?xml version="1.0" encoding="utf-8"?>
<!-- Generator: Adobe Illustrator 16.0.0, SVG Export Plug-In . SVG Version: 6.00 Build 0)  -->
<!DOCTYPE svg PUBLIC "-//W3C//DTD SVG 1.1//EN" "http://www.w3.org/Graphics/SVG/1.1/DTD/svg11.dtd">
<svg version="1.1" id="Capa_1" xmlns="http://www.w3.org/2000/svg" xmlns:xlink="http://www.w3.org/1999/xlink" x="0px" y="0px"
	 width="22px" height="22px" viewBox="0 0 22 22" enable-background="new 0 0 22 22" xml:space="preserve">
<rect fill="#ECF0F1" width="22" height="22"/>
<rect fill="#546A79" width="22" height="4.552"/>
<circle fill="#ED7161" cx="2.276" cy="2.276" r="1.138"/>
<circle fill="#F0C419" cx="5.689" cy="2.276" r="1.138"/>
<circle fill="#4FBA6F" cx="9.104" cy="2.276" r="1.138"/>
<path fill="#CEC9AE" d="M14.793,8.15h-0.758h-2.656h-0.759H7.965H7.207H3.793v3.414v0.759v2.654v0.76v3.413h3.414h0.758h2.655h0.759
	h2.656h0.758h3.414v-3.413v-0.76v-2.654v-0.759V8.15H14.793z M11.379,8.909h2.656v2.655h-2.656V8.909z M14.035,14.978h-2.656v-2.654
	h2.656V14.978z M7.965,12.323h2.655v2.654H7.965V12.323z M7.965,8.909h2.655v2.655H7.965V8.909z M4.552,8.909h2.655v2.655H4.552
	V8.909z M4.552,12.323h2.655v2.654H4.552V12.323z M7.207,18.392H4.552v-2.654h2.655V18.392z M10.621,18.392H7.965v-2.654h2.655
	V18.392z M14.035,18.392h-2.656v-2.654h2.656V18.392z M17.448,18.392h-2.655v-2.654h2.655V18.392z M17.448,14.978h-2.655v-2.654
	h2.655V14.978z M14.793,11.564V8.909h2.655v2.655H14.793z"/>
<rect x="11.379" y="12.323" fill="#26B99A" width="2.656" height="2.654"/>
</svg>
