<?xml version="1.0" encoding="iso-8859-1"?>
<!-- Generator: Adobe Illustrator 19.0.0, SVG Export Plug-In . SVG Version: 6.00 Build 0)  -->
<svg version="1.1" id="Capa_1" xmlns="http://www.w3.org/2000/svg" xmlns:xlink="http://www.w3.org/1999/xlink" x="0px" y="0px"
	 viewBox="0 0 58 58" style="enable-background:new 0 0 58 58;" xml:space="preserve">
<rect style="fill:#ECF0F1;" width="58" height="58"/>
<rect style="fill:#546A79;" width="58" height="12"/>
<circle style="fill:#ED7161;" cx="6" cy="6" r="3"/>
<circle style="fill:#F0C419;" cx="15" cy="6" r="3"/>
<circle style="fill:#4FBA6F;" cx="24" cy="6" r="3"/>
<rect x="5" y="17" style="fill:#FFFFFF;" width="41" height="6"/>
<rect x="46" y="17" style="fill:#95A5A5;" width="7" height="6"/>
<path style="fill:#BDC3C7;" d="M38,34H6c-0.552,0-1-0.448-1-1s0.448-1,1-1h32c0.552,0,1,0.448,1,1S38.552,34,38,34z"/>
<path style="fill:#BDC3C7;" d="M38,38H6c-0.552,0-1-0.448-1-1s0.448-1,1-1h32c0.552,0,1,0.448,1,1S38.552,38,38,38z"/>
<path style="fill:#0096E6;" d="M28,30H6c-0.552,0-1-0.448-1-1s0.448-1,1-1h22c0.552,0,1,0.448,1,1S28.552,30,28,30z"/>
<path style="fill:#BDC3C7;" d="M38,49H6c-0.552,0-1-0.448-1-1s0.448-1,1-1h32c0.552,0,1,0.448,1,1S38.552,49,38,49z"/>
<path style="fill:#BDC3C7;" d="M38,53H6c-0.552,0-1-0.448-1-1s0.448-1,1-1h32c0.552,0,1,0.448,1,1S38.552,53,38,53z"/>
<path style="fill:#0096E6;" d="M28,45H6c-0.552,0-1-0.448-1-1s0.448-1,1-1h22c0.552,0,1,0.448,1,1S28.552,45,28,45z"/>
<g>
</g>
<g>
</g>
<g>
</g>
<g>
</g>
<g>
</g>
<g>
</g>
<g>
</g>
<g>
</g>
<g>
</g>
<g>
</g>
<g>
</g>
<g>
</g>
<g>
</g>
<g>
</g>
<g>
</g>
</svg>
