<?xml version="1.0" encoding="utf-8"?>
<!-- Generator: Adobe Illustrator 16.0.0, SVG Export Plug-In . SVG Version: 6.00 Build 0)  -->
<!DOCTYPE svg PUBLIC "-//W3C//DTD SVG 1.1//EN" "http://www.w3.org/Graphics/SVG/1.1/DTD/svg11.dtd">
<svg version="1.1" id="Capa_1" xmlns="http://www.w3.org/2000/svg" xmlns:xlink="http://www.w3.org/1999/xlink" x="0px" y="0px"
	 width="22px" height="22px" viewBox="0 0 22 22" enable-background="new 0 0 22 22" xml:space="preserve">
<rect fill="#ECF0F1" width="22" height="22"/>
<rect fill="#546A79" width="22" height="4.552"/>
<circle fill="#ED7161" cx="2.276" cy="2.276" r="1.138"/>
<circle fill="#F0C419" cx="5.689" cy="2.276" r="1.138"/>
<circle fill="#4FBA6F" cx="9.104" cy="2.276" r="1.138"/>
<rect y="4.552" fill="#8697CB" width="22" height="4.173"/>
<rect y="4.552" fill="#556080" width="6.968" height="17.448"/>
<g>
	<path fill="#768E9B" d="M2.322,7.207h2.324c0.32,0,0.58-0.17,0.58-0.379c0-0.21-0.26-0.379-0.58-0.379H2.322
		c-0.32,0-0.581,0.169-0.581,0.379C1.742,7.037,2.002,7.207,2.322,7.207z"/>
	<path fill="#768E9B" d="M4.646,8.345H2.322c-0.32,0-0.581,0.169-0.581,0.379s0.26,0.379,0.581,0.379h2.324
		c0.32,0,0.58-0.169,0.58-0.379S4.966,8.345,4.646,8.345z"/>
	<path fill="#768E9B" d="M4.646,10.241H2.322c-0.32,0-0.581,0.17-0.581,0.379c0,0.21,0.26,0.379,0.581,0.379h2.324
		c0.32,0,0.58-0.169,0.58-0.379C5.226,10.411,4.966,10.241,4.646,10.241z"/>
	<path fill="#768E9B" d="M4.646,12.138H2.322c-0.32,0-0.581,0.17-0.581,0.38c0,0.209,0.26,0.379,0.581,0.379h2.324
		c0.32,0,0.58-0.17,0.58-0.379C5.226,12.308,4.966,12.138,4.646,12.138z"/>
	<path fill="#768E9B" d="M4.646,14.035H2.322c-0.32,0-0.581,0.169-0.581,0.379c0,0.209,0.26,0.379,0.581,0.379h2.324
		c0.32,0,0.58-0.17,0.58-0.379C5.226,14.204,4.966,14.035,4.646,14.035z"/>
	<path fill="#768E9B" d="M4.646,15.932H2.322c-0.32,0-0.581,0.169-0.581,0.379c0,0.209,0.26,0.379,0.581,0.379h2.324
		c0.32,0,0.58-0.17,0.58-0.379C5.226,16.101,4.966,15.932,4.646,15.932z"/>
	<path fill="#768E9B" d="M4.646,17.828H2.322c-0.32,0-0.581,0.169-0.581,0.379c0,0.209,0.26,0.379,0.581,0.379h2.324
		c0.32,0,0.58-0.17,0.58-0.379C5.226,17.997,4.966,17.828,4.646,17.828z"/>
	<path fill="#768E9B" d="M4.646,19.725H2.322c-0.32,0-0.581,0.169-0.581,0.379c0,0.209,0.26,0.379,0.581,0.379h2.324
		c0.32,0,0.58-0.17,0.58-0.379C5.226,19.894,4.966,19.725,4.646,19.725z"/>
</g>
</svg>
