<?xml version="1.0" encoding="utf-8"?>
<!-- Generator: Adobe Illustrator 16.0.0, SVG Export Plug-In . SVG Version: 6.00 Build 0)  -->
<!DOCTYPE svg PUBLIC "-//W3C//DTD SVG 1.1//EN" "http://www.w3.org/Graphics/SVG/1.1/DTD/svg11.dtd">
<svg version="1.1" id="Capa_1" xmlns="http://www.w3.org/2000/svg" xmlns:xlink="http://www.w3.org/1999/xlink" x="0px" y="0px"
	 width="22px" height="22px" viewBox="0 0 22 22" enable-background="new 0 0 22 22" xml:space="preserve">
<rect fill="#ECF0F1" width="22" height="22"/>
<rect fill="#546A79" width="22" height="4.552"/>
<circle fill="#ED7161" cx="2.276" cy="2.276" r="1.138"/>
<circle fill="#F0C419" cx="5.689" cy="2.276" r="1.138"/>
<circle fill="#4FBA6F" cx="9.104" cy="2.276" r="1.138"/>
<rect x="8.104" y="12.076" fill="#FFFFFF" width="11.861" height="7.383"/>
<rect x="8.104" y="12.076" fill="#556080" width="11.861" height="2.759"/>
<path fill="#FFFFFF" d="M17.212,14.4c-0.086,0-0.172-0.033-0.235-0.099c-0.131-0.129-0.131-0.34,0-0.471l1.332-1.334
	c0.131-0.131,0.342-0.131,0.473,0s0.131,0.342,0,0.474l-1.333,1.331C17.382,14.367,17.297,14.4,17.212,14.4z"/>
<path fill="#FFFFFF" d="M18.545,14.4c-0.085,0-0.171-0.033-0.236-0.099l-1.332-1.331c-0.131-0.132-0.131-0.343,0-0.474
	c0.129-0.131,0.34-0.131,0.472,0l1.333,1.334c0.131,0.131,0.131,0.342,0,0.471C18.716,14.367,18.63,14.4,18.545,14.4z"/>
<g>
	<rect x="10.016" y="16" fill="#BDC3C7" width="8.406" height="0.758"/>
	<rect x="10.016" y="17.518" fill="#BDC3C7" width="8.406" height="0.758"/>
</g>
</svg>
