<?xml version="1.0" encoding="iso-8859-1"?>
<!-- Generator: Adobe Illustrator 19.0.0, SVG Export Plug-In . SVG Version: 6.00 Build 0)  -->
<svg version="1.1" id="Capa_1" xmlns="http://www.w3.org/2000/svg" xmlns:xlink="http://www.w3.org/1999/xlink" x="0px" y="0px"
	 viewBox="0 0 58 58" style="enable-background:new 0 0 58 58;" xml:space="preserve">
<rect style="fill:#ECF0F1;" width="58" height="58"/>
<rect style="fill:#546A79;" width="58" height="12"/>
<circle style="fill:#ED7161;" cx="6" cy="6" r="3"/>
<circle style="fill:#F0C419;" cx="15" cy="6" r="3"/>
<circle style="fill:#4FBA6F;" cx="24" cy="6" r="3"/>
<rect x="5" y="17" style="fill:#FFFFFF;" width="48" height="36"/>
<g>
	<path style="fill:#BDC3C7;" d="M12,36h32c0.552,0,1-0.448,1-1s-0.448-1-1-1H12c-0.552,0-1,0.448-1,1S11.448,36,12,36z"/>
	<path style="fill:#BDC3C7;" d="M44,40H12c-0.552,0-1,0.448-1,1s0.448,1,1,1h32c0.552,0,1-0.448,1-1S44.552,40,44,40z"/>
	<path style="fill:#BDC3C7;" d="M12,30h9c0.552,0,1-0.448,1-1s-0.448-1-1-1h-9c-0.552,0-1,0.448-1,1S11.448,30,12,30z"/>
	<path style="fill:#BDC3C7;" d="M29,30h3c0.552,0,1-0.448,1-1s-0.448-1-1-1h-3c-0.552,0-1,0.448-1,1S28.448,30,29,30z"/>
	<path style="fill:#BDC3C7;" d="M25,30c0.26,0,0.52-0.11,0.71-0.29C25.89,29.52,26,29.26,26,29c0-0.26-0.11-0.52-0.29-0.71
		c-0.38-0.37-1.04-0.37-1.42,0C24.11,28.48,24,28.74,24,29c0,0.26,0.11,0.52,0.29,0.71C24.48,29.89,24.74,30,25,30z"/>
</g>
<g>
</g>
<g>
</g>
<g>
</g>
<g>
</g>
<g>
</g>
<g>
</g>
<g>
</g>
<g>
</g>
<g>
</g>
<g>
</g>
<g>
</g>
<g>
</g>
<g>
</g>
<g>
</g>
<g>
</g>
</svg>
