<?xml version="1.0" encoding="iso-8859-1"?>
<!-- Generator: Adobe Illustrator 19.0.0, SVG Export Plug-In . SVG Version: 6.00 Build 0)  -->
<svg version="1.1" id="Capa_1" xmlns="http://www.w3.org/2000/svg" xmlns:xlink="http://www.w3.org/1999/xlink" x="0px" y="0px"
	 viewBox="0 0 58 58" style="enable-background:new 0 0 58 58;" xml:space="preserve">
<rect style="fill:#ECF0F1;" width="58" height="58"/>
<rect style="fill:#546A79;" width="58" height="12"/>
<circle style="fill:#ED7161;" cx="6" cy="6" r="3"/>
<circle style="fill:#F0C419;" cx="15" cy="6" r="3"/>
<circle style="fill:#4FBA6F;" cx="24" cy="6" r="3"/>
<path style="fill:#BDC3C7;" d="M47,29h-9.6c-2.2,0-4-1.8-4-4v0c0-2.2,1.8-4,4-4H47c2.2,0,4,1.8,4,4v0C51,27.2,49.2,29,47,29z"/>
<circle style="fill:#7F8C8D;" cx="37.4" cy="25" r="4"/>
<path style="fill:#BDC3C7;" d="M37.4,48H47c2.2,0,4-1.8,4-4v0c0-2.2-1.8-4-4-4h-9.6c-2.2,0-4,1.8-4,4v0C33.4,46.2,35.2,48,37.4,48z"
	/>
<circle style="fill:#26B99A;" cx="47" cy="44" r="4"/>
<path style="fill:#7F8C8D;" d="M16,24H8c-0.553,0-1-0.447-1-1s0.447-1,1-1h8c0.553,0,1,0.447,1,1S16.553,24,16,24z"/>
<path style="fill:#7F8C8D;" d="M25,29H8c-0.553,0-1-0.447-1-1s0.447-1,1-1h17c0.553,0,1,0.447,1,1S25.553,29,25,29z"/>
<path style="fill:#7F8C8D;" d="M16,42H8c-0.553,0-1-0.447-1-1s0.447-1,1-1h8c0.553,0,1,0.447,1,1S16.553,42,16,42z"/>
<path style="fill:#7F8C8D;" d="M25,47H8c-0.553,0-1-0.447-1-1s0.447-1,1-1h17c0.553,0,1,0.447,1,1S25.553,47,25,47z"/>
<g>
</g>
<g>
</g>
<g>
</g>
<g>
</g>
<g>
</g>
<g>
</g>
<g>
</g>
<g>
</g>
<g>
</g>
<g>
</g>
<g>
</g>
<g>
</g>
<g>
</g>
<g>
</g>
<g>
</g>
</svg>
