<?xml version="1.0" encoding="utf-8"?>
<!-- Generator: Adobe Illustrator 16.0.0, SVG Export Plug-In . SVG Version: 6.00 Build 0)  -->
<!DOCTYPE svg PUBLIC "-//W3C//DTD SVG 1.1//EN" "http://www.w3.org/Graphics/SVG/1.1/DTD/svg11.dtd">
<svg version="1.1" id="Capa_1" xmlns="http://www.w3.org/2000/svg" xmlns:xlink="http://www.w3.org/1999/xlink" x="0px" y="0px"
	 width="22px" height="22px" viewBox="0 0 22 22" enable-background="new 0 0 22 22" xml:space="preserve">
<rect fill="#ECF0F1" width="22" height="22"/>
<rect fill="#546A79" width="22" height="4.552"/>
<circle fill="#ED7161" cx="2.276" cy="2.276" r="1.138"/>
<circle fill="#F0C419" cx="5.689" cy="2.276" r="1.138"/>
<circle fill="#4FBA6F" cx="9.104" cy="2.276" r="1.138"/>
<path fill="#BDC3C7" d="M18.191,9.482c0,0.838-0.68,1.518-1.518,1.518H5.187c-0.838,0-1.518-0.679-1.518-1.518l0,0
	c0-0.838,0.679-1.517,1.518-1.517h11.487C17.512,7.965,18.191,8.645,18.191,9.482L18.191,9.482z"/>
<circle fill="#7F8C8D" cx="5.186" cy="9.483" r="1.517"/>
<line fill="none" stroke="#7F8C8D" stroke-linecap="round" stroke-miterlimit="10" x1="8.588" y1="9.482" x2="15.588" y2="9.482"/>
<path fill="#BDC3C7" d="M18.191,15.996c0,0.839-0.68,1.518-1.518,1.518H5.187c-0.838,0-1.518-0.679-1.518-1.518l0,0
	c0-0.838,0.679-1.517,1.518-1.517h11.487C17.512,14.479,18.191,15.158,18.191,15.996L18.191,15.996z"/>
<circle fill="#26B99A" cx="5.187" cy="15.996" r="1.518"/>
<line fill="none" stroke="#7F8C8D" stroke-linecap="round" stroke-miterlimit="10" x1="8.588" y1="15.996" x2="15.588" y2="15.996"/>
</svg>
