<?xml version="1.0" encoding="utf-8"?>
<!-- Generator: Adobe Illustrator 16.0.0, SVG Export Plug-In . SVG Version: 6.00 Build 0)  -->
<!DOCTYPE svg PUBLIC "-//W3C//DTD SVG 1.1//EN" "http://www.w3.org/Graphics/SVG/1.1/DTD/svg11.dtd">
<svg version="1.1" id="Capa_1" xmlns="http://www.w3.org/2000/svg" xmlns:xlink="http://www.w3.org/1999/xlink" x="0px" y="0px"
	 width="22px" height="22px" viewBox="0 0 22 22" enable-background="new 0 0 22 22" xml:space="preserve">
<rect fill="#ECF0F1" width="22" height="22"/>
<rect fill="#546A79" width="22" height="4.552"/>
<circle fill="#ED7161" cx="2.276" cy="2.276" r="1.138"/>
<circle fill="#F0C419" cx="5.689" cy="2.276" r="1.138"/>
<circle fill="#4FBA6F" cx="9.104" cy="2.276" r="1.138"/>
<path fill="#BDC3C7" d="M2.276,20.104c-0.097,0-0.194-0.037-0.268-0.111c-0.148-0.148-0.148-0.388,0-0.536l3.793-3.793
	c0.148-0.148,0.388-0.148,0.536,0c0.148,0.147,0.148,0.388,0,0.536l-3.793,3.793C2.47,20.066,2.373,20.104,2.276,20.104z"/>
<path fill="#BDC3C7" d="M4.172,20.104H2.276c-0.21,0-0.379-0.17-0.379-0.379c0-0.211,0.169-0.38,0.379-0.38h1.896
	c0.21,0,0.379,0.169,0.379,0.38C4.552,19.934,4.382,20.104,4.172,20.104z"/>
<path fill="#BDC3C7" d="M2.276,20.104c-0.21,0-0.379-0.17-0.379-0.379v-1.896c0-0.211,0.169-0.38,0.379-0.38s0.379,0.169,0.379,0.38
	v1.896C2.655,19.934,2.486,20.104,2.276,20.104z"/>
<path fill="#BDC3C7" d="M15.932,11c-0.098,0-0.195-0.037-0.269-0.111c-0.148-0.148-0.148-0.388,0-0.536l3.793-3.793
	c0.148-0.148,0.388-0.148,0.536,0c0.148,0.148,0.148,0.388,0,0.536l-3.793,3.793C16.125,10.963,16.028,11,15.932,11z"/>
<path fill="#BDC3C7" d="M19.725,7.207h-1.896c-0.211,0-0.38-0.17-0.38-0.379c0-0.21,0.169-0.379,0.38-0.379h1.896
	c0.209,0,0.379,0.169,0.379,0.379C20.104,7.037,19.934,7.207,19.725,7.207z"/>
<path fill="#BDC3C7" d="M19.725,9.104c-0.211,0-0.38-0.169-0.38-0.379V6.828c0-0.21,0.169-0.379,0.38-0.379
	c0.209,0,0.379,0.169,0.379,0.379v1.896C20.104,8.934,19.934,9.104,19.725,9.104z"/>
<path fill="#BDC3C7" d="M19.456,19.994l-3.793-3.793c-0.148-0.148-0.148-0.389,0-0.537c0.147-0.148,0.388-0.148,0.536,0l3.793,3.793
	c0.148,0.148,0.148,0.389,0,0.537c-0.074,0.074-0.171,0.111-0.268,0.111C19.627,20.105,19.529,20.068,19.456,19.994z"/>
<path fill="#BDC3C7" d="M17.448,19.727c0-0.211,0.169-0.381,0.38-0.381h1.896c0.209,0,0.379,0.17,0.379,0.381
	c0,0.209-0.17,0.379-0.379,0.379h-1.896C17.617,20.105,17.448,19.936,17.448,19.727z"/>
<path fill="#BDC3C7" d="M19.345,19.727V17.83c0-0.211,0.169-0.381,0.38-0.381c0.209,0,0.379,0.17,0.379,0.381v1.896
	c0,0.209-0.17,0.379-0.379,0.379C19.514,20.105,19.345,19.936,19.345,19.727z"/>
<path fill="#BDC3C7" d="M5.801,10.889L2.008,7.096c-0.148-0.148-0.148-0.388,0-0.536c0.148-0.148,0.388-0.148,0.536,0l3.793,3.793
	c0.148,0.148,0.148,0.389,0,0.536C6.264,10.963,6.166,11,6.068,11C5.972,11,5.875,10.963,5.801,10.889z"/>
<path fill="#BDC3C7" d="M1.896,6.828c0-0.21,0.17-0.379,0.379-0.379h1.896c0.211,0,0.38,0.169,0.38,0.379
	c0,0.209-0.169,0.379-0.38,0.379H2.275C2.066,7.208,1.896,7.038,1.896,6.828z"/>
<path fill="#BDC3C7" d="M1.896,8.724V6.828c0-0.21,0.17-0.379,0.379-0.379c0.211,0,0.38,0.169,0.38,0.379v1.896
	c0,0.211-0.169,0.38-0.38,0.38C2.066,9.104,1.896,8.935,1.896,8.724z"/>
</svg>
