<?xml version="1.0" encoding="iso-8859-1"?>
<!-- Generator: Adobe Illustrator 19.0.0, SVG Export Plug-In . SVG Version: 6.00 Build 0)  -->
<svg version="1.1" id="Capa_1" xmlns="http://www.w3.org/2000/svg" xmlns:xlink="http://www.w3.org/1999/xlink" x="0px" y="0px"
	 viewBox="0 0 58 58" style="enable-background:new 0 0 58 58;" xml:space="preserve">
<rect style="fill:#ECF0F1;" width="58" height="58"/>
<rect style="fill:#546A79;" width="58" height="12"/>
<circle style="fill:#ED7161;" cx="6" cy="6" r="3"/>
<circle style="fill:#F0C419;" cx="15" cy="6" r="3"/>
<circle style="fill:#4FBA6F;" cx="24" cy="6" r="3"/>
<rect y="12" style="fill:#26B99A;" width="58" height="24"/>
<path style="fill:#FFFFFF;" d="M49,29c-0.256,0-0.512-0.098-0.707-0.293c-0.391-0.391-0.391-1.023,0-1.414L51.586,24l-3.293-3.293
	c-0.391-0.391-0.391-1.023,0-1.414s1.023-0.391,1.414,0L53.414,23c0.552,0.551,0.552,1.449,0,2l-3.707,3.707
	C49.512,28.902,49.256,29,49,29z"/>
<path style="fill:#FFFFFF;" d="M8.829,29c-0.256,0-0.512-0.098-0.707-0.293L4.414,25c-0.551-0.553-0.551-1.449,0-2l3.708-3.708
	c0.391-0.391,1.023-0.391,1.414,0s0.391,1.023,0,1.414L6.243,24l3.293,3.293c0.391,0.391,0.391,1.023,0,1.414
	C9.34,28.902,9.084,29,8.829,29z"/>
<circle style="fill:#BDC3C7;" cx="11" cy="47" r="6"/>
<circle style="fill:#BDC3C7;" cx="29" cy="47" r="6"/>
<circle style="fill:#BDC3C7;" cx="47" cy="47" r="6"/>
<g>
</g>
<g>
</g>
<g>
</g>
<g>
</g>
<g>
</g>
<g>
</g>
<g>
</g>
<g>
</g>
<g>
</g>
<g>
</g>
<g>
</g>
<g>
</g>
<g>
</g>
<g>
</g>
<g>
</g>
</svg>
